<svg preserveAspectRatio="none" overflow="visible" style="display: block;" width="247" height="20" viewBox="0 0 247 20" fill="none" xmlns="http://www.w3.org/2000/svg">
<g id="Frame 1" clip-path="url(#clip0_0_5)">
<g id="Vector">
<path d="M17.7958 -78.7556C18.0466 -78.409 18.5038 -78.2689 19.0717 -78.2689C20.414 -78.2689 22.3683 -79.0506 23.6516 -79.7513C24.7062 -80.3339 27.0957 -81.8384 26.5204 -83.247C25.9894 -84.545 23.0468 -88.1219 19.2561 -88.8446C16.815 -89.3093 14.5656 -88.4906 12.5817 -86.4183C12.4785 -86.3076 12.3384 -86.1749 12.1835 -86.0348C11.4976 -85.3858 10.6347 -84.5819 10.8265 -83.7706C10.9371 -83.2986 11.3649 -82.9446 12.1392 -82.7086C14.632 -81.9416 16.815 -80.12 17.7885 -78.7556H17.7958ZM11.4755 -83.9255C11.3722 -84.368 12.1392 -85.0834 12.6407 -85.5554C12.7956 -85.7029 12.9431 -85.8356 13.0611 -85.961C14.8827 -87.8638 16.9256 -88.6086 19.1307 -88.1956C22.6265 -87.5319 25.4363 -84.1615 25.9083 -82.9963C26.1517 -82.3989 25.0897 -81.3 23.3271 -80.3339C20.9671 -79.0285 18.6956 -78.6229 18.3268 -79.1465C17.287 -80.5994 14.9712 -82.5316 12.331 -83.3503C11.8221 -83.5051 11.5124 -83.7116 11.4681 -83.9329L11.4755 -83.9255Z" fill="#AC905C" fill-opacity="0.6"/>
<path d="M18.5997 -75.8794C19.1233 -75.4295 20.0452 -75.2673 21.1367 -75.2673C23.6958 -75.2673 27.1621 -76.1892 28.4748 -76.5653C32.3467 -77.6789 36.9044 -79.5521 38.3499 -81.2115C39.2423 -82.2293 38.6966 -82.9078 38.4237 -83.1511C36.4029 -84.9433 33.2612 -87.4434 29.7949 -89.1912C25.3847 -91.4111 21.5792 -91.8757 18.467 -90.5556C16.0996 -92.6059 12.7808 -91.3079 8.54761 -88.7193C7.44874 -88.0481 5.61236 -86.2929 5.33949 -84.4491C5.20674 -83.5125 5.47224 -82.6718 6.12861 -81.9416C7.80273 -80.0758 10.5831 -79.1613 13.275 -78.2836C15.3842 -77.5904 17.3828 -76.934 18.6071 -75.8794H18.5997ZM5.98849 -84.3533C6.23186 -86.0421 8.04611 -87.6425 8.88686 -88.1588C11.564 -89.796 13.8428 -90.9022 15.6718 -90.9022C16.6232 -90.9022 17.4566 -90.6072 18.1646 -89.9287L18.3268 -89.7739L18.526 -89.8624C21.476 -91.1972 25.1635 -90.7695 29.4852 -88.5939C32.8851 -86.8755 35.9826 -84.4123 37.9738 -82.6496C38.1139 -82.5316 38.3942 -82.2735 37.8411 -81.6393C36.6832 -80.3118 32.7523 -78.4828 28.2831 -77.1921C23.7106 -75.872 19.9936 -75.5475 19.0275 -76.3735C17.7 -77.5093 15.6497 -78.1878 13.4741 -78.9031C10.8707 -79.7586 8.17148 -80.6436 6.61536 -82.3768C6.09174 -82.9594 5.88524 -83.6231 5.98849 -84.3459V-84.3533Z" fill="#AC905C" fill-opacity="0.6"/>
<path d="M11.4902 -75.7614C14.5803 -75.0608 17.5008 -74.397 19.3667 -73.04C20.0968 -72.5017 21.4317 -72.273 23.1501 -72.273C29.2639 -72.273 40.2527 -75.223 46.3444 -78.0403C49.3903 -79.4489 50.9759 -80.6953 51.0497 -81.7573C51.0718 -82.0818 50.9685 -82.5464 50.349 -82.9594C44.6187 -86.7206 32.7892 -94.4791 24.308 -94.4791C24.2416 -94.4791 24.1752 -94.4791 24.1088 -94.4791C19.8903 -99.3392 13.9682 -96.8834 6.08436 -92.8861C4.62412 -92.1486 1.43075 -89.7444 0.00737499 -86.8165V-84.604C0.0368749 -84.8326 0.0737499 -85.0539 0.13275 -85.2899C0.995623 -88.6013 4.78637 -91.4922 6.37936 -92.2961C10.6495 -94.4644 14.0788 -95.991 16.9108 -96.404C17.4197 -96.4777 17.9138 -96.5146 18.3785 -96.5146C20.5467 -96.5146 22.2282 -95.6886 23.7106 -93.9334L23.8138 -93.808H23.9761C24.0867 -93.808 24.2047 -93.8154 24.3227 -93.8154C32.5974 -93.8154 44.3237 -86.1233 49.995 -82.4063C50.4228 -82.126 50.4007 -81.8826 50.4007 -81.8089C50.3712 -81.4475 49.8992 -80.415 46.0715 -78.645C42.2292 -76.8677 36.3366 -75.0165 31.0634 -73.9177C25.3183 -72.7303 21.0925 -72.5975 19.7576 -73.571C17.7811 -75.0092 14.8016 -75.6877 11.6377 -76.403C7.30861 -77.3839 2.83199 -78.4016 0.766998 -81.4696C0.353999 -82.0818 0.10325 -82.7381 0.01475 -83.424V-81.4401C0.0811248 -81.3295 0.140125 -81.2115 0.213875 -81.1009C2.42637 -77.8116 7.03574 -76.7644 11.4902 -75.754V-75.7614Z" fill="#AC905C" fill-opacity="0.6"/>
<path d="M20.1263 -70.208C21.1662 -69.5074 22.9952 -69.2493 25.134 -69.2493C29.5147 -69.2493 35.2008 -70.3334 38.1287 -70.9603C46.3149 -72.7155 54.892 -75.4959 59.4645 -77.8854C62.0163 -79.2203 63.2626 -80.356 63.2774 -81.3738C63.2848 -81.9121 62.9603 -82.3694 62.3113 -82.7381C51.8609 -88.6234 38.726 -95.7181 29.7286 -98.3952C23.8728 -105.8 15.9447 -102.813 3.62112 -97.0235C2.74349 -96.6105 1.416 -95.7919 0.00737499 -94.6856V-93.8301C1.46762 -95.0396 2.89837 -95.9541 3.90137 -96.4261C10.7159 -99.6269 15.4432 -101.566 19.4183 -102.031C20.001 -102.097 20.5541 -102.134 21.0925 -102.134C24.4555 -102.134 27.0219 -100.792 29.2787 -97.9011L29.3451 -97.82L29.4483 -97.7905C38.3868 -95.1576 51.5364 -88.0555 61.9941 -82.1629C62.4145 -81.9269 62.6284 -81.6614 62.6284 -81.3811C62.6284 -80.9608 62.1638 -80.0315 59.1695 -78.468C54.6413 -76.108 46.1379 -73.3424 38.0033 -71.6019C29.0943 -69.6918 22.5527 -69.3747 20.5025 -70.7538C17.8548 -72.5385 13.8945 -73.2465 9.69811 -73.9988C6.30561 -74.6035 2.84674 -75.223 0.01475 -76.4399V-75.7245C2.86149 -74.5519 6.24661 -73.9398 9.58011 -73.3424C13.7027 -72.6049 17.5967 -71.9043 20.1263 -70.2007V-70.208Z" fill="#AC905C" fill-opacity="0.6"/>
<path d="M20.8786 -67.3834C22.1028 -66.6017 24.308 -66.255 27.1621 -66.255C39.3087 -66.255 63.1151 -72.5017 71.9504 -77.4355C74.362 -78.7851 75.5272 -79.943 75.5125 -80.9829C75.5051 -81.595 75.0921 -82.1186 74.2882 -82.5316C69.9296 -84.7736 64.981 -87.2369 59.7448 -89.855C51.0054 -94.221 41.9637 -98.7345 35.3336 -102.348C31.7493 -107.083 27.5898 -108.927 21.8521 -108.344C16.6527 -107.813 10.561 -105.416 1.1505 -101.183C0.818623 -101.035 0.427749 -100.829 0.00737499 -100.6V-99.8481C0.523624 -100.143 1.003 -100.394 1.42337 -100.586C10.7749 -104.789 16.8076 -107.171 21.9185 -107.688C22.5675 -107.754 23.2017 -107.791 23.8138 -107.791C28.3568 -107.791 31.8157 -105.925 34.8468 -101.898L34.8911 -101.839L34.9574 -101.802C41.6023 -98.1814 50.6735 -93.6531 59.4498 -89.265C64.686 -86.6543 69.6272 -84.1836 73.9859 -81.9416C74.5537 -81.6466 74.8487 -81.3221 74.8561 -80.9755C74.8561 -80.5478 74.4579 -79.589 71.6332 -78.0181C66.4265 -75.1124 55.5853 -71.5872 44.6482 -69.2345C32.7228 -66.6754 23.9761 -66.1887 21.24 -67.9439C17.9138 -70.0753 12.9652 -70.8202 7.72899 -71.6167C5.11824 -72.0075 2.48537 -72.4132 0.01475 -72.9958V-72.3173C2.46325 -71.7494 5.05924 -71.3585 7.62574 -70.9677C12.7956 -70.1859 17.6705 -69.4484 20.8786 -67.3982V-67.3834Z" fill="#AC905C" fill-opacity="0.6"/>
<path d="M21.6382 -64.5662C23.1132 -63.6517 25.7608 -63.2461 29.1828 -63.2461C44.2352 -63.2461 74.1702 -71.0193 84.2223 -76.875C86.634 -78.2763 87.7845 -79.4931 87.7476 -80.5846C87.7181 -81.2705 87.224 -81.8531 86.2652 -82.3178C82.3933 -84.1836 78.1675 -85.9979 73.6909 -87.9154C61.2788 -93.2401 48.4389 -98.7419 40.9312 -106.301C35.5179 -111.751 30.3776 -113.89 23.7475 -113.44C17.5377 -113.02 10.2734 -110.365 0.022125 -105.91V-105.188C10.3471 -109.679 17.6262 -112.363 23.7917 -112.776C24.3375 -112.813 24.8758 -112.835 25.4068 -112.835C31.0634 -112.835 35.6507 -110.682 40.4665 -105.837C48.0628 -98.1887 60.9616 -92.6575 73.4327 -87.3106C77.902 -85.3931 82.1278 -83.5863 85.985 -81.7204C86.7003 -81.3738 87.0765 -80.9829 87.0912 -80.5551C87.106 -80.0979 86.7151 -79.0875 83.8978 -77.4429C78.0126 -74.0135 64.8704 -69.7508 51.1972 -66.8229C36.3218 -63.6443 25.4068 -63.0027 21.9996 -65.1193C17.995 -67.6047 12.0581 -68.3938 5.76724 -69.2272C3.84974 -69.4853 1.9175 -69.7434 0.0294999 -70.0458V-69.3747C1.89537 -69.0723 3.79074 -68.8215 5.67874 -68.5708C11.8959 -67.7448 17.7663 -66.9704 21.653 -64.5588L21.6382 -64.5662Z" fill="#AC905C" fill-opacity="0.6"/>
<path d="M22.3905 -61.7416C24.0425 -60.7386 27.0809 -60.2444 31.2404 -60.2444C37.7009 -60.2444 46.8828 -61.4318 57.7978 -63.7549C74.244 -67.258 89.7536 -72.273 96.3763 -76.2482C98.8543 -77.7305 100.027 -79.0138 99.9606 -80.1716C99.9163 -80.9386 99.3337 -81.5876 98.2274 -82.0965C94.3187 -83.896 90.2034 -85.6291 85.8448 -87.4655C70.8884 -93.7637 55.423 -100.276 46.4993 -110.262C40.4887 -116.988 34.2716 -119.738 26.3287 -119.185C21.0482 -118.817 14.8606 -117.319 0 -111.095V-110.38C12.1761 -115.498 21.0408 -118.595 28.3494 -118.595C35.1123 -118.595 40.5403 -115.948 46.0199 -109.819C55.0395 -99.7227 70.5712 -93.1811 85.6015 -86.8608C89.9527 -85.0244 94.0679 -83.2986 97.9619 -81.4991C98.8322 -81.1009 99.2821 -80.6436 99.3116 -80.1421C99.3411 -79.5374 98.8027 -78.4754 96.0444 -76.8234C89.4733 -72.8852 74.0522 -67.8997 57.665 -64.4113C39.8692 -60.6279 26.8081 -59.8388 22.7371 -62.3094C18.054 -65.1488 11.1215 -65.9748 3.77599 -66.8598C2.52225 -67.0073 1.2685 -67.1622 0.022125 -67.3244V-66.6607C1.24637 -66.5058 2.47062 -66.3583 3.70224 -66.2108C10.974 -65.3405 17.8401 -64.5219 22.3978 -61.7563L22.3905 -61.7416Z" fill="#AC905C" fill-opacity="0.6"/>
<path d="M24.3153 -124.311C21.1515 -123.736 17.641 -122.784 13.5478 -121.413C9.30723 -119.982 4.66837 -118.16 0.01475 -116.25V-115.535C12.7587 -120.778 21.5571 -123.736 29.0058 -124.259C29.3303 -124.281 29.6474 -124.296 29.9646 -124.311H24.3153Z" fill="#AC905C" fill-opacity="0.6"/>
<path d="M51.5806 -113.802C62.0015 -101.22 80.0407 -93.764 97.4899 -86.5512C101.841 -84.7517 105.949 -83.0555 109.939 -81.2781C110.957 -80.8282 111.495 -80.3046 111.532 -79.722C111.576 -79.073 111.023 -77.9299 108.147 -76.1673C101 -71.7865 82.8875 -65.9529 64.1108 -61.9778C43.4092 -57.597 28.2241 -56.6678 23.4746 -59.4924C18.113 -62.6858 10.1775 -63.5634 1.78475 -64.4853C1.19475 -64.5516 0.604749 -64.618 0.01475 -64.6844V-64.0206C0.582624 -63.9543 1.1505 -63.8953 1.711 -63.8289C10.0374 -62.9144 17.8917 -62.0442 23.1353 -58.9245C25.2003 -57.6929 28.7993 -57.2283 33.0694 -57.2283C43.7632 -57.2283 58.6606 -60.1488 64.2435 -61.3362C83.389 -65.3924 101.17 -71.1228 108.486 -75.6067C111.053 -77.1776 112.262 -78.542 112.188 -79.7662C112.129 -80.607 111.466 -81.3224 110.204 -81.8829C106.207 -83.6602 102.092 -85.3639 97.7407 -87.1634C80.3652 -94.3466 62.4071 -101.773 52.0895 -114.23C47.5465 -119.717 42.7897 -122.991 37.2658 -124.319H32.5458C40.0093 -123.994 45.8503 -120.727 51.5806 -113.809V-113.802Z" fill="#AC905C" fill-opacity="0.6"/>
<path d="M57.1488 -117.784C68.9487 -102.695 89.3996 -94.3759 109.179 -86.3371C113.413 -84.6188 117.786 -82.8414 121.916 -81.0493C123.089 -80.5404 123.701 -79.9504 123.752 -79.3014C123.804 -78.6008 123.236 -77.3692 120.22 -75.4959C112.387 -70.621 91.9513 -64.0573 70.5344 -59.5438C46.9418 -54.5657 29.6253 -53.4963 24.2195 -56.6749C18.2236 -60.2002 9.38098 -61.1294 0.00737499 -62.0882V-61.4244C9.27773 -60.4731 18.0245 -59.5512 23.8802 -56.1071C26.1222 -54.7943 30.0973 -54.2117 35.2156 -54.2191C58.9114 -54.2191 107.077 -66.55 120.559 -74.9428C123.243 -76.6095 124.497 -78.055 124.401 -79.3604C124.335 -80.2823 123.583 -81.0566 122.167 -81.6688C118.029 -83.4609 113.649 -85.2383 109.415 -86.964C89.7167 -94.9732 69.3396 -103.248 57.6503 -118.204C55.777 -120.601 53.8522 -122.637 51.8535 -124.326H50.8137C52.9819 -122.578 55.0764 -120.424 57.134 -117.799L57.1488 -117.784Z" fill="#AC905C" fill-opacity="0.6"/>
<path d="M9.35148 -124.311H7.45611C5.05924 -123.404 2.58124 -122.43 0.01475 -121.39V-120.675C3.25974 -121.995 6.37199 -123.212 9.35148 -124.311Z" fill="#AC905C" fill-opacity="0.6"/>
<path d="M62.7245 -121.767C75.9331 -104.089 98.8472 -94.9366 121.002 -86.0866C125.272 -84.383 129.689 -82.613 133.908 -80.8356C135.228 -80.2751 135.929 -79.6187 135.988 -78.8812C136.076 -77.7971 134.786 -76.3811 132.263 -74.7881C123.73 -69.4118 100.979 -62.1326 76.9361 -57.0808C50.4747 -51.5274 31.049 -50.3179 24.9793 -53.8432C18.7254 -57.479 9.70574 -58.5632 0.022387 -59.5145V-58.8508C9.60987 -57.9068 18.5262 -56.83 24.6475 -53.2753C27.0222 -51.8962 31.3587 -51.2177 37.2956 -51.2177C46.883 -51.2177 60.6448 -52.9877 77.0762 -56.4392C101.185 -61.4984 124.025 -68.8144 132.625 -74.2276C135.449 -76.005 136.762 -77.5464 136.651 -78.9329C136.57 -79.9285 135.737 -80.7766 134.173 -81.4404C129.948 -83.2251 125.53 -84.9877 121.252 -86.6987C99.1791 -95.5118 76.3609 -104.635 63.2629 -122.165C62.7024 -122.917 62.1345 -123.633 61.5666 -124.319H60.6964C61.3823 -123.507 62.0608 -122.674 62.7393 -121.774L62.7245 -121.767Z" fill="#AC905C" fill-opacity="0.6"/>
<path d="M132.315 -86.0569C136.799 -84.2869 141.43 -82.4653 145.892 -80.6068C147.367 -79.9946 148.149 -79.2719 148.215 -78.4606C148.318 -77.2954 146.969 -75.7909 144.321 -74.1094C135.102 -68.2389 110.035 -60.2297 83.3595 -54.6468C69.9591 -51.8443 57.665 -49.9637 47.812 -49.2188C36.8528 -48.3928 29.2123 -49.0123 25.724 -51.0257C19.2192 -54.7722 10.0005 -56.0038 0.01475 -56.9626V-56.2988C9.89723 -55.3474 19.0127 -54.1232 25.3921 -50.4505C28.1282 -48.8722 32.9809 -48.1863 39.2349 -48.1863C68.5947 -48.1863 128.738 -63.3935 144.675 -73.5489C147.625 -75.4295 148.997 -77.052 148.871 -78.5196C148.776 -79.5964 147.861 -80.5035 146.143 -81.2189C141.673 -83.0774 137.042 -84.9064 132.558 -86.669C109.061 -95.9394 84.7902 -105.512 70.1877 -124.311H69.3617C84.038 -105.106 108.567 -95.4231 132.315 -86.0569Z" fill="#AC905C" fill-opacity="0.6"/>
<path d="M104.614 -103.307C116.694 -96.5367 130.353 -91.212 143.554 -86.0643C148.267 -84.2279 153.149 -82.3251 157.869 -80.3855C159.491 -79.7218 160.362 -78.9326 160.443 -78.0477C160.553 -76.8087 159.145 -75.2083 156.372 -73.4235C146.467 -67.0515 119.084 -58.3343 89.7757 -52.2131C75.07 -49.1377 61.5738 -47.0801 50.7473 -46.2615C38.7039 -45.347 30.3038 -46.0181 26.4688 -48.2085C19.7133 -52.0656 10.2881 -53.4299 0.01475 -54.4256V-53.7618C10.1849 -52.7809 19.5142 -51.4239 26.1443 -47.6332C28.9984 -46.0033 34.1904 -45.1995 41.2999 -45.1995C52.9598 -45.1995 69.7895 -47.3603 89.9085 -51.5641C119.283 -57.7001 146.762 -66.4615 156.726 -72.8704C159.809 -74.8543 161.239 -76.5653 161.099 -78.1066C160.996 -79.2571 159.993 -80.2306 158.12 -80.9976C153.392 -82.9373 148.51 -84.84 143.797 -86.6838C130.611 -91.8241 116.975 -97.1489 104.939 -103.89C94.1122 -109.959 85.5425 -116.678 78.9345 -124.311H78.0568C84.7681 -116.442 93.5148 -109.531 104.614 -103.307Z" fill="#AC905C" fill-opacity="0.6"/>
<path d="M127.44 -101.058C137.138 -94.4865 148.016 -89.1986 159.786 -85.3415C173.356 -80.8944 187.775 -78.4828 202.635 -78.1878C202.901 -78.1878 203.166 -78.1804 203.432 -78.1804C214.863 -78.1804 231.884 -82.9668 247.313 -96.286V-97.1636C231.552 -83.365 214.052 -78.6229 202.65 -78.8515C187.856 -79.1465 173.504 -81.5434 159.993 -85.9758C148.281 -89.8181 137.455 -95.0765 127.808 -101.611C116.392 -109.347 108.641 -117.482 104.268 -124.318H103.501C107.896 -117.319 115.773 -108.971 127.44 -101.065V-101.058Z" fill="#AC905C" fill-opacity="0.6"/>
<path d="M132.75 -103.344C141.319 -97.466 151.01 -92.6944 161.549 -89.147C173.637 -85.0834 186.55 -82.7603 199.936 -82.2514C200.423 -82.2366 200.917 -82.2219 201.426 -82.2219C207.488 -82.2219 214.509 -83.5715 221.39 -86.0643C229.959 -89.1765 238.234 -94.0366 245.314 -100.114C245.971 -100.681 246.642 -101.279 247.313 -101.891V-102.791C246.494 -102.024 245.683 -101.301 244.886 -100.615C237.865 -94.5897 229.664 -89.7739 221.168 -86.6838C213.801 -84.0066 206.278 -82.6644 199.973 -82.9078C186.654 -83.4166 173.799 -85.725 161.77 -89.7665C151.283 -93.2917 141.651 -98.0412 133.133 -103.882C125.758 -108.941 119.497 -114.657 115.028 -120.432C114.01 -121.744 113.103 -123.042 112.306 -124.304H111.525C115.411 -117.932 122.373 -110.453 132.75 -103.336V-103.344Z" fill="#AC905C" fill-opacity="0.6"/>
<path d="M138.015 -105.63C145.472 -100.438 153.982 -96.168 163.297 -92.9377C173.91 -89.2576 185.326 -87.0304 197.237 -86.3298C197.937 -86.2855 198.667 -86.2634 199.434 -86.2634C209.87 -86.2634 226.139 -90.2532 240.919 -101.81C242.991 -103.425 245.145 -105.291 247.298 -107.415V-108.344C245.004 -106.043 242.711 -104.044 240.513 -102.326C224.79 -90.0394 207.392 -86.3814 197.273 -86.9861C185.422 -87.6868 174.064 -89.8993 163.511 -93.5646C154.248 -96.7727 145.796 -101.021 138.384 -106.176C131.916 -110.675 126.459 -115.763 122.602 -120.882C121.732 -122.039 120.95 -123.19 120.264 -124.318H119.497C120.242 -123.057 121.097 -121.774 122.071 -120.483C125.972 -115.306 131.481 -110.173 138.001 -105.63H138.015Z" fill="#AC905C" fill-opacity="0.6"/>
<path d="M143.237 -107.902C152.847 -101.087 169.544 -92.5174 194.545 -90.3934C195.562 -90.3049 196.624 -90.2606 197.731 -90.2606C202.583 -90.2606 208.152 -91.0866 213.771 -92.6649C221.832 -94.929 229.709 -98.6607 236.545 -103.469C240.012 -105.903 243.714 -108.971 247.313 -112.776V-113.75C243.603 -109.738 239.761 -106.53 236.169 -104.008C229.392 -99.2507 221.589 -95.5485 213.594 -93.2991C206.78 -91.389 200.032 -90.5851 194.604 -91.0424C169.75 -93.1516 153.156 -101.662 143.62 -108.433C136.717 -113.33 131.289 -118.994 128.163 -124.304H127.41C130.559 -118.802 136.12 -112.939 143.23 -107.894L143.237 -107.902Z" fill="#AC905C" fill-opacity="0.6"/>
<path d="M148.385 -110.151C156.328 -104.369 170.318 -96.9497 191.845 -94.4644C193.173 -94.3095 194.618 -94.2284 196.167 -94.2284C205.961 -94.2284 219.76 -97.407 232.15 -105.106C237.032 -108.138 242.394 -112.327 247.305 -117.991V-119.008C242.313 -113.094 236.803 -108.772 231.803 -105.667C217.592 -96.8391 201.529 -94.0071 191.919 -95.1134C170.532 -97.584 156.645 -104.944 148.768 -110.682C142.964 -114.908 138.487 -119.716 135.914 -124.311H135.169C137.765 -119.532 142.367 -114.517 148.377 -110.151H148.385Z" fill="#AC905C" fill-opacity="0.6"/>
<path d="M153.437 -112.363C159.772 -107.584 171.114 -101.308 189.154 -98.5354C190.82 -98.2772 192.738 -98.1445 194.854 -98.1445C203.859 -98.1445 216.397 -100.608 227.769 -106.714C234.112 -110.121 241.31 -115.321 247.32 -123.079V-124.171C241.28 -116.11 233.92 -110.77 227.459 -107.297C213.557 -99.826 197.908 -97.8569 189.264 -99.1844C171.365 -101.935 160.126 -108.16 153.85 -112.887C149.13 -116.442 145.567 -120.439 143.525 -124.311H142.787C144.852 -120.247 148.532 -116.066 153.444 -112.363H153.437Z" fill="#AC905C" fill-opacity="0.6"/>
<path d="M158.334 -114.51C165.237 -109.045 174.957 -104.922 186.447 -102.599C188.512 -102.179 191.189 -101.928 194.294 -101.928C204.582 -101.928 219.561 -104.679 232.393 -113.248C237.135 -116.412 241.184 -120.107 244.547 -124.304H243.706C240.447 -120.328 236.553 -116.818 232.024 -113.802C219.31 -105.313 204.494 -102.584 194.323 -102.584C191.263 -102.584 188.623 -102.835 186.587 -103.241C175.2 -105.549 165.576 -109.62 158.754 -115.018C155.081 -117.924 152.375 -121.132 150.848 -124.296H150.125C151.674 -120.941 154.491 -117.548 158.348 -114.495L158.334 -114.51Z" fill="#AC905C" fill-opacity="0.6"/>
<path d="M162.987 -116.567C167.862 -112.415 175.038 -108.993 183.74 -106.677C186.1 -106.05 189.832 -105.549 194.501 -105.549C197.163 -105.549 200.128 -105.711 203.314 -106.102C209.958 -106.921 219.826 -109.052 229.097 -114.539C233.728 -117.283 237.696 -120.55 241 -124.311H240.122C236.936 -120.778 233.153 -117.703 228.765 -115.107C219.59 -109.679 209.818 -107.57 203.24 -106.758C194.552 -105.689 187.561 -106.345 183.91 -107.312C168.017 -111.545 160.273 -118.426 157.773 -124.311H157.05C158.12 -121.649 160.133 -118.994 162.987 -116.567Z" fill="#AC905C" fill-opacity="0.6"/>
<path d="M181.026 -110.748C184.035 -109.679 189.375 -108.831 195.798 -108.831C204.663 -108.831 215.6 -110.439 225.328 -115.299C230.173 -117.718 234.318 -120.727 237.747 -124.304H236.811C233.522 -120.985 229.598 -118.168 225.033 -115.889C208.439 -107.599 188.32 -108.853 181.24 -111.368C169.145 -115.66 165.222 -120.808 164.034 -124.304H163.334C164.949 -119.067 171.181 -114.237 181.026 -110.741V-110.748Z" fill="#AC905C" fill-opacity="0.6"/>
<path d="M178.305 -114.834C181.513 -113.271 187.185 -112.201 193.955 -112.201C198.247 -112.201 202.989 -112.629 207.82 -113.639C214.878 -115.114 223.705 -118.138 231.7 -124.318H230.601C222.887 -118.566 214.465 -115.704 207.687 -114.288C195.378 -111.722 183.74 -112.924 178.6 -115.431C173.054 -118.138 169.846 -121.184 169.19 -124.318H168.511C169.153 -120.926 172.494 -117.681 178.305 -114.841V-114.834Z" fill="#AC905C" fill-opacity="0.6"/>
<path d="M175.569 -118.927C177.656 -117.401 181.543 -116.103 186.233 -115.372C188.519 -115.011 191.683 -114.679 195.511 -114.679C197.827 -114.679 200.386 -114.805 203.137 -115.114C209.988 -115.889 216.404 -117.651 222.208 -120.351C224.701 -121.508 227.046 -122.836 229.251 -124.311H228.02C226.095 -123.072 224.067 -121.944 221.928 -120.948C216.19 -118.278 209.84 -116.538 203.063 -115.771C190.666 -114.362 179.846 -116.626 175.96 -119.458C174.109 -120.808 173.01 -122.113 172.597 -123.404C172.42 -123.706 172.294 -124.009 172.213 -124.304H171.749C171.845 -122.497 173.098 -120.727 175.569 -118.92V-118.927Z" fill="#AC905C" fill-opacity="0.6"/>
<path d="M172.803 -123.079C174.817 -120.159 181.026 -117.755 189.006 -116.788C191.403 -116.501 193.977 -116.339 196.669 -116.339C206.588 -116.339 218.064 -118.514 227.909 -124.311H226.604C214.42 -117.511 199.914 -116.139 189.087 -117.445C181.403 -118.374 175.222 -120.727 173.349 -123.455C173.143 -123.75 173.01 -124.038 172.914 -124.311H172.213C172.294 -124.016 172.42 -123.714 172.597 -123.411C172.663 -123.301 172.73 -123.19 172.803 -123.079Z" fill="#AC905C" fill-opacity="0.6"/>
<path d="M158.024 105.626C152.537 95.5005 147.352 85.9278 140.575 78.0144C115.684 48.957 94.9161 35.1289 81.1765 25.9765C71.7881 19.7225 65.5931 15.5999 62.8791 10.1424C62.68 9.7368 62.6431 9.44918 62.7611 9.27218C63.0045 8.91818 63.8231 8.7928 65.04 8.7928C66.5519 8.7928 68.6832 8.99192 71.1022 9.22055C81.2355 10.1793 98.1906 11.7797 116.318 4.91356C126.658 0.997445 149.786 10.1719 166.675 16.8758C174.079 19.811 179.928 22.1342 183.025 22.6873C192.074 24.3098 194.154 23.5944 198.719 22.0383C202.377 20.7845 207.908 18.8965 220.534 17.3404C226.847 16.566 236.309 17.1265 247.32 19.398V18.7269C236.287 16.4628 226.796 15.9023 220.453 16.684C207.761 18.2475 202.193 20.1503 198.505 21.4114C194.058 22.9306 192.023 23.6239 183.143 22.0383C180.112 21.4925 173.998 19.0735 166.925 16.2637C149.933 9.52293 126.665 0.29682 116.09 4.30144C98.1021 11.1085 81.2428 9.51555 71.1686 8.56417C65.8955 8.06267 62.9898 7.78981 62.2228 8.90343C61.9499 9.29431 61.972 9.80317 62.2965 10.4448C65.0842 16.0572 71.3456 20.224 80.8225 26.537C94.5326 35.6672 115.249 49.4658 140.08 78.4495C146.814 86.3113 151.984 95.8471 157.456 105.943C160.539 111.63 163.666 117.397 167.154 122.987H167.928C164.366 117.301 161.18 111.423 158.039 105.626H158.024Z" fill="#AC905C" fill-opacity="0.6"/>
<path d="M222.061 22.6209C210.814 23.941 205.533 25.4898 202.038 26.5075C197.48 27.8424 195.592 28.3955 187.096 26.8541C184.33 26.3526 178.821 24.2287 172.442 21.7654C156.807 15.7327 135.39 7.46532 125.876 11.2561C110.042 17.5691 95.1668 16.5955 86.28 16.0203C81.3682 15.7032 78.669 15.5262 77.9389 16.6177C77.6734 17.0233 77.6955 17.5322 78.02 18.1738C80.6676 23.4838 86.6045 27.4663 95.6019 33.499C108.191 41.936 127.204 54.68 150.066 80.6916C156.401 87.8969 161.284 96.5699 166.446 105.744C169.691 111.512 172.995 117.367 176.749 122.987H177.545C173.71 117.271 170.34 111.305 167.029 105.42C161.844 96.2085 156.947 87.5134 150.568 80.2564C127.654 54.1785 108.589 41.405 95.9781 32.9533C87.0691 26.9869 81.1838 23.0413 78.6174 17.8862C78.4109 17.4732 78.374 17.1708 78.492 16.9864C78.7649 16.5808 79.7678 16.4407 81.2428 16.4407C82.5851 16.4407 84.3182 16.5513 86.2431 16.6767C95.1889 17.2593 110.153 18.2402 126.127 11.8682C135.397 8.1733 156.674 16.3817 172.206 22.3775C178.88 24.9514 184.153 26.9869 186.978 27.4958C195.629 29.0666 197.694 28.4619 202.229 27.1344C205.703 26.1167 210.947 24.5753 222.142 23.2699C228.064 22.5767 236.973 23.1372 247.313 25.298V24.6269C236.951 22.4808 228.012 21.9203 222.068 22.6135L222.061 22.6209Z" fill="#AC905C" fill-opacity="0.6"/>
<path d="M223.683 28.5504C213.978 29.6198 209.022 30.8145 205.74 31.611C201.013 32.7541 199.243 33.1819 191.064 31.6774C188.578 31.2201 183.681 29.3985 178.01 27.2819C163.71 21.9498 144.137 14.6412 135.685 18.2254C121.997 24.0295 109.106 23.6608 101.399 23.4469C97.0106 23.3215 94.3629 23.2478 93.6697 24.3319C93.4042 24.7449 93.4411 25.2685 93.7656 25.9249C96.2731 30.9473 101.908 34.7454 110.448 40.5053C121.909 48.2342 139.218 59.9162 160.074 82.9409C166.004 89.4899 170.598 97.2853 175.466 105.538C178.917 111.401 182.442 117.367 186.543 122.987H187.362C183.158 117.271 179.566 111.18 176.041 105.199C171.159 96.9165 166.549 89.0917 160.576 82.4911C139.667 59.4 122.314 47.6959 110.824 39.9521C102.372 34.2513 96.7893 30.4827 94.3629 25.6225C94.1491 25.1948 94.1048 24.885 94.2302 24.6859C94.5621 24.1697 95.9854 24.0369 98.0062 24.0369C99.0092 24.0369 100.152 24.0664 101.384 24.1033C109.142 24.3245 122.122 24.6933 135.95 18.8302C144.151 15.3566 164.388 22.9012 177.781 27.9014C183.711 30.1139 188.394 31.8618 190.946 32.3264C199.257 33.8604 201.204 33.3884 205.895 32.2526C209.354 31.4193 214.088 30.2762 223.757 29.2068C229.664 28.5578 238.006 29.2215 247.313 31.198V30.5343C247.173 30.5048 247.033 30.4679 246.892 30.4384C237.873 28.5652 229.635 27.894 223.683 28.5504Z" fill="#AC905C" fill-opacity="0.6"/>
<path d="M225.298 34.4873C217.297 35.2985 212.916 36.1245 209.715 36.7292C204.553 37.7027 202.996 37.9904 195.024 36.5006C192.819 36.0876 188.556 34.5684 183.615 32.7984C170.642 28.1595 152.876 21.8097 145.494 25.1874C141.172 27.1639 133.944 30.4679 116.503 30.8145C112.483 30.8956 110.057 30.9399 109.401 32.0314C109.142 32.4665 109.179 32.9975 109.519 33.6686C111.886 38.4034 117.248 42.0466 125.36 47.5557C136.297 54.9823 151.283 65.1598 170.097 85.1976C175.628 91.0829 179.928 97.9933 184.478 105.309C188.202 111.298 192.008 117.404 196.588 122.994H197.443C192.753 117.345 188.873 111.121 185.038 104.955C180.466 97.6098 176.152 90.6699 170.576 84.7404C151.711 64.6509 136.695 54.4513 125.729 47.0026C117.705 41.5525 112.402 37.9535 110.109 33.3663C109.769 32.6951 109.917 32.4518 109.968 32.3706C110.433 31.5963 113.118 31.5446 116.517 31.4783C123.089 31.3455 134.099 31.1316 145.774 25.7921C147.116 25.18 148.849 24.9145 150.87 24.9145C159.587 24.9145 173.541 29.9074 183.401 33.4326C188.571 35.2838 192.649 36.7366 194.913 37.157C203.004 38.6763 204.73 38.3517 209.848 37.3856C213.034 36.7882 217.407 35.9623 225.38 35.151C230.52 34.6274 238.323 35.1879 247.32 37.1054V36.4343C238.301 34.5241 230.476 33.971 225.313 34.4946L225.298 34.4873Z" fill="#AC905C" fill-opacity="0.6"/>
<path d="M226.921 40.4241C220.969 40.9625 217.142 41.4787 214.347 41.8549C208.247 42.6735 206.979 42.8431 198.992 41.3165C197.074 40.9551 193.468 39.7309 189.294 38.3223C177.627 34.3693 161.638 28.9634 155.295 32.1494C145.877 36.8841 137.271 37.6143 131.584 38.0936C127.934 38.4034 125.736 38.5878 125.124 39.6866C124.866 40.1439 124.918 40.7044 125.264 41.3976C127.514 45.8595 132.617 49.3478 140.339 54.6283C150.066 61.2806 163.385 70.3887 180.105 87.4323C185.223 92.6464 189.412 98.9446 193.468 105.029C197.605 111.239 201.794 117.522 207.082 122.987H208.011C202.539 117.441 198.225 110.973 194.021 104.66C189.95 98.5464 185.746 92.226 180.584 86.9677C163.821 69.8798 150.464 60.7496 140.722 54.0826C133.082 48.8611 128.037 45.4096 125.862 41.1026C125.618 40.6232 125.567 40.2693 125.707 40.0185C126.149 39.2294 128.458 39.0303 131.651 38.7574C137.396 38.2706 146.076 37.5331 155.605 32.7468C156.836 32.1273 158.488 31.8618 160.443 31.8618C168.135 31.8618 180.392 36.0065 189.095 38.9565C193.468 40.4389 196.919 41.6041 198.881 41.9729C206.972 43.5216 208.41 43.3299 214.442 42.5186C217.23 42.1425 221.05 41.6262 226.995 41.0879C231.744 40.6527 239.001 41.2059 247.328 43.0054V42.3342C238.986 40.5495 231.715 39.9964 226.936 40.4315L226.921 40.4241Z" fill="#AC905C" fill-opacity="0.6"/>
<path d="M202.952 104.314C199.191 99.129 195.304 93.7674 190.57 89.2023C176.004 75.1529 164.352 67.1363 155.848 61.288C148.51 56.2361 143.657 52.9026 141.592 48.839C141.327 48.3154 141.268 47.9171 141.415 47.6221C141.828 46.7887 143.893 46.42 146.74 45.9111C151.231 45.1073 158.024 43.8904 165.421 39.694C166.542 39.0598 168.135 38.7869 170.045 38.7869C176.749 38.7869 187.317 42.113 194.877 44.4877C198.402 45.594 201.19 46.4716 202.834 46.7887C211.47 48.485 212.186 48.4186 220.977 47.6516C222.99 47.4746 225.49 47.2607 228.595 47.0174C232.961 46.6781 239.665 47.2312 247.313 48.898V48.2195C239.65 46.5601 232.932 46.0144 228.543 46.3536C225.431 46.597 222.931 46.8109 220.918 46.9879C212.031 47.7622 211.5 47.8065 202.96 46.1324C201.352 45.8226 198.446 44.9081 195.076 43.8461C185.252 40.756 170.414 36.0877 165.096 39.104C157.803 43.2488 151.077 44.4509 146.629 45.2474C143.362 45.83 141.393 46.184 140.825 47.3124C140.582 47.8065 140.634 48.4039 141.002 49.1266C143.141 53.3451 148.053 56.7155 155.472 61.8263C163.961 67.6673 175.584 75.6618 190.112 89.6743C194.81 94.2025 198.675 99.542 202.421 104.697C207.112 111.165 211.95 117.832 218.469 122.98H219.553C212.768 117.817 207.783 110.958 202.96 104.314H202.952Z" fill="#AC905C" fill-opacity="0.6"/>
<path d="M211.824 103.879C208.395 99.6526 204.855 95.2867 200.57 91.4369C188.372 80.4703 178.482 73.6558 171.262 68.6777C164.071 63.7217 159.314 60.4398 157.338 56.5754C157.036 55.9854 156.962 55.5207 157.117 55.152C157.493 54.2375 159.314 53.6401 161.829 52.8215C165.273 51.7005 169.993 50.1665 175.259 46.6339C176.255 45.9627 177.818 45.6899 179.728 45.6899C185.628 45.6899 194.832 48.308 200.931 50.0485C203.498 50.7786 205.519 51.3539 206.795 51.6046C207.709 51.789 208.528 51.9586 209.28 52.1061C216.301 53.5442 217.201 53.7286 230.203 52.9468C234.193 52.7108 240.358 53.264 247.305 54.7906V54.1047C240.52 52.6224 234.37 52.0397 230.159 52.2905C217.245 53.0648 216.353 52.8805 209.405 51.4645C208.653 51.3096 207.834 51.14 206.913 50.963C205.666 50.7122 203.55 50.1149 201.101 49.4142C192.384 46.9362 179.205 43.1824 174.876 46.0881C169.691 49.5691 165.023 51.0884 161.615 52.1946C158.828 53.1017 156.991 53.6991 156.497 54.9012C156.269 55.4617 156.342 56.1033 156.741 56.8777C158.798 60.8971 163.599 64.2085 170.878 69.2234C178.084 74.1942 187.959 80.9939 200.12 91.931C204.368 95.7439 207.893 100.095 211.301 104.299C217.341 111.74 223.16 118.923 232.496 122.987H234.303C224.185 119.108 218.115 111.644 211.817 103.879H211.824Z" fill="#AC905C" fill-opacity="0.6"/>
<path d="M231.788 58.2273C222.525 58.5592 220.077 57.9618 215.637 56.8703C214.31 56.5458 212.805 56.1771 210.888 55.7788C210.084 55.6092 208.874 55.3142 207.48 54.9676C200.216 53.1755 188.062 50.1738 184.67 53.0648C181.565 55.7125 178.792 57.3423 176.565 58.6477C173.143 60.6537 171.078 61.8632 172.494 64.6141C174.507 68.5228 179.419 71.8858 186.86 76.9746C192.996 81.1783 200.636 86.4072 210.15 94.1804C213.875 97.2263 217.009 100.538 220.04 103.738C224.413 108.363 228.543 112.728 233.957 115.796C237.983 118.075 242.349 119.41 247.32 119.867V119.218C234.466 118.016 227.917 111.099 220.519 103.281C217.474 100.066 214.332 96.7395 210.571 93.6641C201.035 85.8688 193.387 80.6325 187.236 76.4214C179.883 71.3843 175.023 68.0582 173.084 64.3043C172.007 62.2172 173.224 61.3691 176.904 59.2156C179.035 57.9692 181.956 56.2582 185.105 53.5663C185.99 52.8067 187.62 52.5117 189.648 52.5117C194.796 52.5117 202.539 54.4219 207.326 55.6092C208.727 55.9559 209.944 56.2582 210.755 56.4278C212.658 56.8187 214.155 57.1875 215.482 57.512C219.834 58.5813 222.459 59.223 231.818 58.8837C235.454 58.751 241.088 59.3041 247.313 60.6685V59.9973C241.074 58.6403 235.439 58.0946 231.788 58.2273Z" fill="#AC905C" fill-opacity="0.6"/>
<path d="M233.33 64.1568C226.737 64.1568 223.831 63.2276 220.475 62.1582C218.831 61.6346 217.134 61.0888 214.855 60.5947L214.192 60.4472C205.902 58.6256 196.189 56.9441 194.434 60.0563C188.682 65.0566 186.145 68.3311 188.232 72.3431C190.319 76.3477 195.599 79.8434 204.353 85.6402C208.646 88.4795 213.993 92.0195 220.158 96.4298C223.167 98.5833 225.748 100.759 228.248 102.868C234.289 107.964 239.422 112.264 247.305 113.503V112.839C239.628 111.593 234.598 107.36 228.676 102.359C226.169 100.243 223.573 98.0596 220.542 95.8914C214.369 91.4738 209.014 87.9338 204.715 85.087C196.049 79.3567 190.82 75.8904 188.814 72.0407C186.912 68.3901 189.264 65.418 194.906 60.521L194.95 60.4767L194.98 60.4177C195.349 59.7171 196.521 58.9943 199.84 58.9943C200.799 58.9943 201.934 59.0533 203.284 59.1935C207.318 59.6138 211.699 60.5726 214.044 61.0888L214.708 61.2363C216.957 61.7231 218.639 62.2615 220.269 62.7777C223.683 63.8692 226.626 64.8058 233.322 64.8058C233.367 64.8058 233.411 64.8058 233.455 64.8058C236.877 64.8058 241.922 65.3442 247.305 66.5094V65.8383C241.656 64.6436 236.538 64.1421 233.448 64.1421H233.322L233.33 64.1568Z" fill="#AC905C" fill-opacity="0.6"/>
<path d="M224.708 67.4608C222.931 66.7159 221.095 65.9489 218.823 65.418C216.677 64.9238 207.761 63.7586 205.002 65.8162C204.523 66.1702 204.25 66.6127 204.191 67.1216C201.743 70.8533 201.662 75.6913 203.985 80.0942C206.559 84.9838 214.56 89.6227 229.097 98.0523L230.203 98.6939C231.604 99.5051 232.917 100.287 234.178 101.047C239.149 104.019 243.065 106.349 247.32 107.433V106.733C243.198 105.648 239.363 103.377 234.517 100.479C233.249 99.7264 231.943 98.9446 230.535 98.126L229.428 97.4844C215.003 89.1138 207.06 84.5118 204.567 79.7918C202.347 75.5807 202.429 70.9566 204.789 67.4239L204.84 67.3502V67.2617C204.87 66.9077 205.054 66.6127 205.401 66.3546C206.433 65.5876 208.668 65.3221 211.072 65.3221C213.948 65.3221 217.075 65.7056 218.676 66.0743C220.896 66.5832 222.702 67.3428 224.458 68.0803C227.304 69.2751 230.247 70.5067 235.019 70.7648C236.199 70.8312 241.361 71.1631 247.313 72.3431V71.6793C241.361 70.5067 236.236 70.1674 235.056 70.1084C230.395 69.8577 227.504 68.6482 224.716 67.4755L224.708 67.4608Z" fill="#AC905C" fill-opacity="0.6"/>
<path d="M236.7 76.0306C233.728 75.5733 231.221 74.2089 228.787 72.8888C226.781 71.7973 224.893 70.7722 222.791 70.2412C220.866 69.7544 215.822 70.3592 214.273 72.2398C213.771 72.8519 213.675 73.5525 213.993 74.2753C214.133 77.535 217.26 83.3023 219.14 86.7612C219.354 87.152 219.546 87.5134 219.723 87.8379C222.024 92.1301 228.735 96.4224 240.248 100.958C242.866 101.991 245.181 102.735 247.313 103.207V102.743C244.348 102.153 242.069 101.275 240.307 100.265C229.06 95.8103 222.518 91.6434 220.306 87.5208C220.129 87.1963 219.937 86.8275 219.723 86.4367C217.864 83.0073 214.752 77.2696 214.656 74.1794V74.113L214.627 74.0541C214.383 73.5452 214.442 73.0879 214.789 72.6602C215.851 71.3696 219.037 70.7501 221.183 70.7501C221.766 70.7501 222.275 70.7943 222.636 70.8902C224.657 71.399 226.515 72.4094 228.477 73.4788C230.955 74.8284 233.514 76.2149 236.604 76.6943C237.674 76.8565 239.068 77.004 240.675 77.1663C242.667 77.3654 244.975 77.6088 247.313 77.948V77.2843C244.99 76.9451 242.718 76.709 240.742 76.5099C239.141 76.3477 237.755 76.2076 236.708 76.0453L236.7 76.0306Z" fill="#AC905C" fill-opacity="0.6"/>
<path d="M247.313 102.079C240.41 100.678 237.379 97.6835 236.051 95.2645C234.377 92.2113 227.386 83.6268 224.362 80.9128C222.983 79.6738 223.248 78.4201 223.713 77.5867C224.34 76.4583 225.586 75.6766 226.346 75.6766C226.434 75.6766 226.515 75.6839 226.589 75.706C228.418 76.2444 230.704 77.8448 232.917 79.4009C234.834 80.7432 236.649 82.019 238.153 82.609C239.82 83.2654 242.711 83.1105 245.771 82.9483C246.288 82.9188 246.804 82.8967 247.32 82.8745V82.2108C246.789 82.2329 246.266 82.2624 245.735 82.2919C242.748 82.4468 239.93 82.6017 238.396 81.9969C236.966 81.4364 235.181 80.1827 233.3 78.8625C231.044 77.2769 228.713 75.647 226.781 75.0792C225.697 74.762 223.956 75.8019 223.145 77.2695C222.334 78.7298 222.621 80.2343 223.934 81.4143C226.921 84.0914 233.831 92.5726 235.491 95.589C236.317 97.1009 237.784 98.8266 240.329 100.28C242.091 101.29 244.37 102.168 247.335 102.758V102.086L247.313 102.079Z" fill="#AC905C" fill-opacity="0.6"/>
<path d="M188.092 15.0099C189.751 15.1722 191.742 15.268 194.014 15.268C202.488 15.268 214.892 13.9701 228.558 10.1941C235.867 8.17332 242.062 5.85019 247.305 3.39432V2.66419C242.032 5.14956 235.778 7.50956 228.381 9.55243C211.138 14.324 195.931 15.1206 188.158 14.3536C165.812 12.1484 140.7 2.77483 139.859 -2.15166C139.734 -2.91129 140.235 -3.53816 141.401 -4.08391C146.548 -6.46603 154.27 -16.3928 161.07 -29.3654C166.527 -39.7788 172.117 -53.8356 171.454 -62.0513C171.173 -65.5397 172.435 -68.261 175.215 -70.1343C178.099 -72.0739 182.575 -73.0769 188.158 -73.0769C190.304 -73.0769 192.605 -72.9294 195.046 -72.6344C203.063 -71.6535 211.817 -69.0723 218.469 -65.724C225.468 -62.2062 235.483 -61.4392 245.174 -60.7017C245.889 -60.6501 246.597 -60.5911 247.305 -60.5394V-61.2032C246.612 -61.2548 245.926 -61.3138 245.226 -61.3654C235.601 -62.0956 225.645 -62.8552 218.764 -66.314C212.046 -69.6918 203.21 -72.3025 195.127 -73.2908C186.167 -74.3897 178.969 -73.4604 174.846 -70.6874C171.852 -68.674 170.488 -65.7462 170.79 -61.9997C171.336 -55.2442 167.39 -42.8542 160.48 -29.6751C153.746 -16.8205 146.143 -7.01178 141.12 -4.68866C139.667 -4.01754 139.018 -3.12517 139.203 -2.04842C140.169 3.64507 166.66 12.8933 188.084 15.0099H188.092Z" fill="#AC905C" fill-opacity="0.6"/>
<path d="M146.032 -6.11203C144.351 -5.32291 144.137 -4.32728 144.262 -3.63403C144.483 -2.32866 146.069 -0.831547 148.975 0.827825C151.63 2.3397 155.339 3.94745 159.691 5.45933C168.931 8.6822 179.964 11.1454 189.213 12.0599C190.739 12.2074 192.568 12.2959 194.663 12.2959C202.465 12.2959 213.882 11.1012 226.456 7.62019C234.938 5.27495 241.782 2.47983 247.313 -0.433289V-1.17817C241.767 1.77183 234.864 4.60382 226.279 6.97857C210.416 11.3667 196.433 12.1042 189.279 11.3962C168.769 9.36806 145.693 0.776206 144.918 -3.75204C144.874 -4.00279 144.741 -4.77716 146.32 -5.51466C151.04 -7.71978 158.142 -16.8869 164.403 -28.8565C169.433 -38.4587 174.595 -51.4239 174.02 -58.9981C173.777 -62.1914 174.942 -64.6842 177.486 -66.3878C180.112 -68.143 184.176 -69.0502 189.235 -69.0502C191.233 -69.0502 193.394 -68.91 195.68 -68.6224C203.026 -67.7005 211.072 -65.311 217.208 -62.2283C223.661 -58.9833 232.887 -58.2901 241.804 -57.6263C243.662 -57.4862 245.506 -57.3461 247.313 -57.1912V-57.8549C245.528 -58.0098 243.706 -58.1499 241.848 -58.2901C232.991 -58.9538 223.838 -59.6397 217.503 -62.8257C204.929 -69.1534 185.252 -72.3984 177.11 -66.9409C174.352 -65.0898 173.084 -62.4053 173.349 -58.9538C173.821 -52.7367 170.163 -41.3202 163.806 -29.1662C157.603 -17.3146 150.627 -8.26553 146.025 -6.11203H146.032Z" fill="#AC905C" fill-opacity="0.6"/>
<path d="M150.929 -7.53542C149.38 -6.79792 149.189 -5.86866 149.299 -5.21967C149.874 -1.9378 159.337 1.6907 163.378 3.09932C171.786 6.02719 181.86 8.27656 190.312 9.10994C191.705 9.25006 193.379 9.32381 195.29 9.32381C202.414 9.32381 212.849 8.23231 224.34 5.04631C234.222 2.31019 241.686 -1.08967 247.313 -4.53379V-5.31553C241.7 -1.82717 234.193 1.6317 224.163 4.40469C209.678 8.41668 196.912 9.0878 190.378 8.44618C171.697 6.60243 150.664 -1.22243 149.948 -5.34504C149.911 -5.57367 149.786 -6.27429 151.209 -6.94541C155.509 -8.98091 161.984 -17.381 167.715 -28.355C172.309 -37.1534 177.044 -49.0197 176.565 -55.9522C176.358 -58.8579 177.427 -61.1073 179.736 -62.6487C182.236 -64.3154 185.997 -65.0382 190.312 -65.0382C198.431 -65.0382 208.528 -62.4643 215.932 -58.7399C221.84 -55.7678 230.269 -55.1483 238.411 -54.5509C241.457 -54.3297 244.466 -54.1084 247.305 -53.7766V-54.4403C244.473 -54.7722 241.487 -54.9934 238.463 -55.2147C230.38 -55.8047 222.024 -56.4168 216.227 -59.3299C204.73 -65.1119 186.764 -68.1209 179.367 -63.1944C176.845 -61.5129 175.68 -59.0571 175.901 -55.9006C176.299 -50.2218 172.936 -39.7788 167.125 -28.6574C161.453 -17.8014 155.096 -9.51191 150.922 -7.53542H150.929Z" fill="#AC905C" fill-opacity="0.6"/>
<path d="M155.833 -8.96616C154.41 -8.28029 154.24 -7.41741 154.344 -6.82004C155.133 -2.39505 174.883 4.51532 191.425 6.15256C192.686 6.27794 194.198 6.34432 195.931 6.34432C202.384 6.34432 211.832 5.35606 222.23 2.47244C233.957 -0.779924 241.929 -5.06479 247.313 -9.12103V-9.95441C241.995 -5.85392 233.994 -1.47317 222.053 1.8382C208.955 5.47406 197.406 6.07881 191.492 5.49619C183.873 4.74394 174.831 2.73057 167.294 0.105072C158.606 -2.91867 155.243 -5.51466 154.993 -6.93066C154.956 -7.13716 154.845 -7.75665 156.114 -8.36878C159.196 -9.85115 164.735 -15.7438 171.041 -27.8461C175.208 -35.8332 179.515 -46.6081 179.124 -52.8916C178.954 -55.5023 179.928 -57.5231 182 -58.8948C184.212 -60.3624 187.539 -60.9967 191.366 -60.9967C198.719 -60.9967 207.923 -58.6367 214.664 -55.2442C220.033 -52.5449 227.658 -51.9992 235.033 -51.4756C239.37 -51.1658 243.611 -50.8634 247.305 -50.1555V-50.834C243.596 -51.5346 239.385 -51.8296 235.078 -52.1393C227.769 -52.6629 220.202 -53.2013 214.959 -55.8416C209.804 -58.4376 203.1 -60.4657 197.015 -61.2696C190.23 -62.1693 184.766 -61.5203 181.631 -59.4479C179.345 -57.9361 178.276 -55.7162 178.46 -52.8473C178.784 -47.707 175.716 -38.2449 170.451 -28.1485C165.318 -18.2955 159.573 -10.7657 155.826 -8.95878L155.833 -8.96616Z" fill="#AC905C" fill-opacity="0.6"/>
<path d="M160.73 -10.3895C159.44 -9.75528 159.285 -8.95878 159.388 -8.40565C159.882 -5.69166 167.515 -2.76379 170.775 -1.62804C177.531 0.717204 185.665 2.52406 192.539 3.20256C193.667 3.31319 195.024 3.37957 196.573 3.37957C202.355 3.37957 210.814 2.49457 220.121 -0.0940504C234.82 -4.17979 242.939 -10.0724 247.313 -14.6818V-15.6553C243.124 -11.0385 235.063 -4.93203 219.944 -0.72829C208.225 2.52408 197.893 3.06981 192.605 2.54619C185.783 1.87507 177.7 0.0755789 170.996 -2.25492C163.267 -4.93941 160.273 -7.25516 160.037 -8.52365C160.008 -8.70065 159.904 -9.2464 161.018 -9.79953C163.762 -11.1418 168.703 -16.4518 174.367 -27.3446C178.099 -34.5279 181.978 -44.2112 181.675 -49.8457C181.55 -52.1614 182.413 -53.9536 184.257 -55.1557C186.182 -56.4168 189.073 -56.9699 192.413 -56.9699C198.992 -56.9699 207.303 -54.8238 213.395 -51.7632C218.218 -49.3368 225.048 -48.8648 231.656 -48.415C237.541 -48.0093 243.227 -47.6185 247.305 -45.9222V-46.645C243.153 -48.2822 237.519 -48.6731 231.7 -49.0713C225.158 -49.5212 218.395 -49.9858 213.69 -52.3532C208.985 -54.7206 203.137 -56.5127 197.65 -57.2723C191.587 -58.1057 186.705 -57.5526 183.895 -55.7162C181.838 -54.3666 180.872 -52.3827 181.012 -49.8162C181.255 -45.2142 178.482 -36.7256 173.777 -27.6617C169.175 -18.8044 164.049 -12.0341 160.723 -10.4117L160.73 -10.3895Z" fill="#AC905C" fill-opacity="0.6"/>
<path d="M165.635 -11.8129C164.47 -11.2303 164.337 -10.5002 164.433 -9.99128C164.883 -7.56491 171.609 -4.98367 174.477 -3.98805C180.407 -1.93043 187.575 -0.337417 193.652 0.259956C194.648 0.355831 195.843 0.414822 197.207 0.414822C202.311 0.414822 209.789 -0.366925 218.012 -2.66055C232.15 -6.59141 239.399 -12.4324 242.991 -16.6288C244.945 -18.915 246.384 -21.3488 247.313 -23.93V-26.2679C246.509 -22.9639 244.909 -19.8811 242.49 -17.0491C238.957 -12.9192 231.818 -7.17403 217.835 -3.28741C207.503 -0.411166 198.387 0.0681977 193.719 -0.389051C180.156 -1.72392 165.627 -7.16667 165.082 -10.1019C165.052 -10.2568 164.964 -10.7288 165.93 -11.2082C172.634 -14.5785 184.611 -37.8392 184.235 -46.763C184.146 -48.7837 184.913 -50.3398 186.521 -51.3871C188.202 -52.4786 190.688 -52.9579 193.549 -52.9579C199.302 -52.9579 206.603 -51.0257 212.127 -48.2527C216.404 -46.0992 222.437 -45.701 228.271 -45.3175C237.069 -44.7348 245.381 -44.1891 247.018 -37.913C247.121 -37.5074 247.217 -37.1017 247.305 -36.6961V-39.1225C244.96 -44.875 236.87 -45.4207 228.315 -45.9812C222.548 -46.3573 216.581 -46.7556 212.422 -48.8501C203.977 -53.0981 191.41 -55.3548 186.159 -51.9549C184.338 -50.775 183.468 -49.0271 183.571 -46.7482C183.74 -42.6846 181.262 -35.1695 177.096 -27.1381C173.025 -19.2838 168.526 -13.2732 165.627 -11.8129H165.635Z" fill="#AC905C" fill-opacity="0.6"/>
<path d="M224.937 -42.9132C219.944 -43.223 214.774 -43.5401 211.161 -45.3617C207.51 -47.1981 203.048 -48.6141 198.925 -49.2483C193.018 -50.1555 189.958 -49.182 188.431 -48.2158C186.845 -47.2055 186.071 -45.6862 186.13 -43.7097C186.226 -40.1845 184.035 -33.6429 180.422 -26.6366C176.889 -19.7853 173.002 -14.5269 170.524 -13.2436C169.492 -12.7053 169.381 -12.0489 169.47 -11.5843C170.111 -8.22865 184.264 -3.73729 194.759 -2.69742C195.717 -2.60154 196.794 -2.55729 197.967 -2.55729C209.037 -2.55729 228.602 -6.87903 237.578 -17.381C242.128 -22.7131 243.507 -29.004 241.656 -36.0987C240.122 -41.9766 232.747 -42.4338 224.937 -42.9206V-42.9132ZM237.076 -17.8088C234.016 -14.2245 227.828 -9.24641 215.726 -5.87604C206.772 -3.37592 198.874 -2.95554 194.832 -3.36117C183.15 -4.51166 170.613 -9.19479 170.126 -11.7097C170.104 -11.8424 170.023 -12.2333 170.834 -12.6536C176.565 -15.6258 187 -35.9512 186.794 -43.7245C186.742 -45.4576 187.413 -46.7777 188.785 -47.6553C190.12 -48.5034 192.126 -48.9386 194.618 -48.9386C195.902 -48.9386 197.31 -48.8206 198.815 -48.592C202.878 -47.9725 207.267 -46.5786 210.858 -44.7717C214.597 -42.8911 219.834 -42.5666 224.893 -42.2568C232.46 -41.7922 239.599 -41.3497 241.015 -35.9291C242.807 -29.063 241.479 -22.9639 237.069 -17.8088H237.076Z" fill="#AC905C" fill-opacity="0.6"/>
<path d="M221.552 -39.8378C217.326 -40.0738 212.96 -40.3246 209.885 -41.866C206.758 -43.4368 202.997 -44.6685 199.56 -45.2363C196.816 -45.6936 193.048 -45.9296 190.702 -44.4693C189.345 -43.6286 188.667 -42.3453 188.689 -40.6565C188.719 -37.6696 186.823 -32.1015 183.755 -26.1277C180.754 -20.272 177.479 -15.7733 175.429 -14.667C174.529 -14.1803 174.441 -13.5829 174.522 -13.1699C174.883 -11.3852 179.286 -9.61516 181.875 -8.72279C186.152 -7.24779 191.381 -6.09729 195.872 -5.65479C196.684 -5.57367 197.591 -5.53679 198.579 -5.53679C207.952 -5.53679 224.546 -9.20954 232.165 -18.1259C236.051 -22.6763 237.224 -28.0526 235.646 -34.1075C234.34 -39.1299 228.13 -39.4765 221.552 -39.8452V-39.8378ZM231.663 -18.5536C226.965 -13.0593 219.258 -10.0282 213.616 -8.44991C206.05 -6.33329 199.361 -5.97929 195.939 -6.31117C191.499 -6.74629 186.322 -7.88204 182.088 -9.34966C179.05 -10.3969 175.414 -12.0636 175.171 -13.3026C175.149 -13.4059 175.082 -13.7304 175.746 -14.0844C180.51 -16.6583 189.412 -34.0485 189.353 -40.6638C189.338 -42.102 189.913 -43.1935 191.056 -43.9088C192.192 -44.6168 193.822 -44.9266 195.71 -44.9266C199.921 -44.9266 205.415 -43.3852 209.597 -41.276C212.79 -39.6682 217.23 -39.4175 221.522 -39.1741C227.85 -38.8201 233.824 -38.4809 235.011 -33.9305C236.531 -28.0969 235.402 -22.9196 231.663 -18.5463V-18.5536Z" fill="#AC905C" fill-opacity="0.6"/>
<path d="M218.167 -36.7699C214.715 -36.9395 211.146 -37.1091 208.624 -38.3776C206.02 -39.6904 202.945 -40.7302 200.201 -41.2317C197.967 -41.6447 194.899 -41.8881 192.974 -40.7229C191.853 -40.0517 191.278 -39.0045 191.248 -37.6106C191.145 -32.4112 183.895 -18.1259 180.326 -16.083C179.559 -15.6405 179.492 -15.1169 179.566 -14.7482C180.09 -12.307 189.581 -9.32753 196.986 -8.59741C197.65 -8.53103 198.387 -8.50153 199.191 -8.50153C206.876 -8.50153 220.483 -11.5253 226.751 -18.8634C229.974 -22.632 230.94 -27.0865 229.635 -32.1089C228.551 -36.2684 223.506 -36.5117 218.167 -36.7699ZM226.25 -19.2911C222.407 -14.7924 216.109 -12.307 211.5 -11.0164C205.312 -9.27591 199.847 -8.98091 197.045 -9.26116C188.969 -10.0577 180.577 -13.1625 180.208 -14.8956C180.186 -14.9841 180.134 -15.2275 180.65 -15.5151C184.434 -17.6834 191.794 -32.131 191.905 -37.6032C191.927 -38.7685 192.384 -39.6018 193.313 -40.1623C194.176 -40.6786 195.393 -40.9146 196.809 -40.9146C200.201 -40.9146 204.744 -39.5945 208.329 -37.7876C210.984 -36.4527 214.619 -36.2757 218.137 -36.1061C223.226 -35.8627 228.035 -35.6267 229.001 -31.9392C230.247 -27.1455 229.325 -22.8901 226.257 -19.2911L226.25 -19.2911Z" fill="#AC905C" fill-opacity="0.6"/>
<path d="M214.782 -33.6945C212.105 -33.7904 209.339 -33.8862 207.355 -34.8818C203.306 -36.9173 197.79 -38.444 195.238 -36.9837C194.353 -36.4822 193.874 -35.671 193.8 -34.5795C193.534 -30.479 187.834 -19.151 185.215 -17.5064C184.552 -17.086 184.552 -16.5919 184.611 -16.3338C184.884 -15.1685 187.295 -14.1213 189.279 -13.4428C191.941 -12.5356 195.149 -11.8424 198.099 -11.5548C198.608 -11.5031 199.184 -11.481 199.811 -11.481C205.799 -11.481 216.434 -13.8558 221.345 -19.6083C223.897 -22.5951 224.672 -26.1351 223.632 -30.1102C222.769 -33.4142 218.89 -33.547 214.782 -33.6945ZM220.837 -20.036C215.556 -13.8558 203.454 -11.6875 198.159 -12.2111C191.882 -12.8306 185.569 -15.139 185.252 -16.4813C185.238 -16.5476 185.201 -16.7173 185.562 -16.9459C188.357 -18.6938 194.176 -30.1987 194.456 -34.5352C194.515 -35.4055 194.877 -36.0176 195.562 -36.4085C196.16 -36.7551 196.978 -36.9026 197.93 -36.9026C200.526 -36.9026 204.117 -35.7669 207.053 -34.2919C209.162 -33.2299 212.001 -33.1266 214.752 -33.0307C218.609 -32.898 222.245 -32.7652 222.983 -29.9406C223.964 -26.1794 223.241 -22.8459 220.837 -20.0286V-20.036Z" fill="#AC905C" fill-opacity="0.6"/>
<path d="M211.382 -30.6265C209.479 -30.6486 207.517 -30.6707 206.079 -31.3935C204.221 -32.3301 199.67 -34.373 197.495 -33.2446C196.853 -32.9127 196.47 -32.3449 196.352 -31.5557C195.894 -28.4287 191.794 -20.1688 190.09 -18.9224C189.574 -18.5463 189.596 -18.1185 189.655 -17.8973C190.068 -16.3928 194.921 -14.9251 199.198 -14.5048C199.56 -14.4679 199.965 -14.4531 200.408 -14.4531C204.7 -14.4531 212.355 -16.1789 215.917 -20.3458C217.805 -22.5583 218.373 -25.169 217.606 -28.119C216.972 -30.5675 214.251 -30.597 211.374 -30.6265H211.382ZM215.423 -20.7735C211.64 -16.3485 203.026 -14.7924 199.272 -15.1611C194.744 -15.611 190.555 -17.1303 190.297 -18.0669C190.282 -18.1111 190.26 -18.2144 190.481 -18.384C192.45 -19.8221 196.558 -28.4066 197.008 -31.4525C197.089 -32.0277 197.355 -32.4186 197.804 -32.6546C198.144 -32.8316 198.586 -32.9127 199.117 -32.9127C200.688 -32.9127 203.041 -32.1752 205.784 -30.7961C207.355 -30.007 209.398 -29.9849 211.374 -29.9627C214.103 -29.9332 216.463 -29.9037 216.972 -27.9494C217.68 -25.228 217.156 -22.809 215.423 -20.7735Z" fill="#AC905C" fill-opacity="0.6"/>
<path d="M207.967 -27.5659C206.846 -27.5142 205.696 -27.4552 204.811 -27.8977C204.582 -28.0084 204.354 -28.1264 204.125 -28.2444C202.429 -29.1146 200.828 -29.9406 199.766 -29.5129C199.368 -29.3506 199.08 -29.0261 198.918 -28.5541C198.247 -26.5776 195.813 -21.1865 194.95 -20.3089C194.596 -19.9475 194.648 -19.6009 194.714 -19.4239C195.135 -18.266 198.431 -17.6391 200.305 -17.4548C200.518 -17.4326 200.762 -17.4253 201.027 -17.4253C203.535 -17.4253 208.196 -18.3914 210.504 -21.0833C211.728 -22.514 212.097 -24.2103 211.596 -26.1204C211.183 -27.7207 209.538 -27.6396 207.96 -27.5659H207.967ZM210.017 -21.511C207.739 -18.8413 202.613 -17.8899 200.386 -18.1111C197.355 -18.4135 195.511 -19.1953 195.349 -19.6451C195.341 -19.6746 195.319 -19.7263 195.43 -19.8369C196.455 -20.8767 198.94 -26.526 199.552 -28.3329C199.648 -28.6205 199.803 -28.8049 200.017 -28.8934C200.135 -28.9376 200.268 -28.9597 200.423 -28.9597C201.278 -28.9597 202.62 -28.2665 203.83 -27.647C204.058 -27.529 204.294 -27.411 204.516 -27.293C205.556 -26.7694 206.854 -26.8357 207.997 -26.8874C209.663 -26.9685 210.696 -26.9611 210.961 -25.936C211.404 -24.2471 211.079 -22.75 210.01 -21.4963L210.017 -21.511Z" fill="#AC905C" fill-opacity="0.6"/>
<path d="M136.791 122.987H137.455C137.669 120.384 137.861 117.692 138.03 114.889C138.952 99.6674 128.664 80.7948 107.454 58.7952C85.1737 35.6894 50.7842 9.52294 13.0906 -12.9929C8.65086 -15.6479 4.28487 -18.1701 0.01475 -20.567V-19.8074C4.17424 -17.4695 8.42961 -15.0063 12.7514 -12.425C50.4007 10.0687 84.7386 36.1909 106.982 59.2598C116.96 69.6143 124.608 79.4083 129.704 88.3836C135.265 98.1702 137.846 107.079 137.374 114.86C137.204 117.677 137.005 120.376 136.791 122.994V122.987Z" fill="#AC905C" fill-opacity="0.6"/>
<path d="M97.7259 59.4737C71.5742 32.9975 32.5311 6.11569 0.01475 -12.012V-11.2524C3.73174 -9.18003 7.53724 -6.99704 11.4017 -4.70342C45.1865 15.3418 76.486 38.8975 97.2613 59.9383C107.033 69.8282 114.541 79.1944 119.593 87.7715C125.117 97.1525 127.72 105.671 127.351 113.082C127.174 116.541 126.96 119.838 126.71 122.98H127.373C127.624 119.845 127.838 116.563 128.015 113.112C128.399 105.567 125.758 96.9239 120.168 87.4249C115.094 78.8036 107.549 69.3931 97.7407 59.4663L97.7259 59.4737Z" fill="#AC905C" fill-opacity="0.6"/>
<path d="M87.8213 60.0268C63.4618 36.0508 28.7698 12.4213 0.01475 -3.43492V-2.69004C3.25974 -0.890547 6.58586 1.00482 9.97836 2.99607C39.8692 20.5633 68.0711 41.523 87.3567 60.5062C96.9589 69.9536 104.378 78.9068 109.408 87.1078C114.924 96.1127 117.587 104.262 117.314 111.327C117.152 115.465 116.923 119.344 116.635 122.994H117.299C117.579 119.351 117.815 115.487 117.97 111.357C118.251 104.159 115.559 95.884 109.968 86.7685C104.909 78.5233 97.4604 69.5258 87.8213 60.0416V60.0268Z" fill="#AC905C" fill-opacity="0.6"/>
<path d="M77.6733 60.4251C59.8923 43.5142 34.7952 25.1653 8.81311 10.0834C5.81149 8.34293 2.87624 6.68356 0.022125 5.12743V5.88706C2.78037 7.39156 5.60499 8.98456 8.48123 10.6587C34.4191 25.7184 59.4719 44.0305 77.2235 60.9118C86.7225 69.9462 94.0974 78.5085 99.1493 86.3629C104.717 95.0211 107.461 102.831 107.291 109.572C107.173 114.425 106.937 118.879 106.62 123.002H107.284C107.601 118.887 107.83 114.432 107.948 109.594C108.117 102.721 105.344 94.7851 99.7024 86.0163C94.6211 78.1177 87.2092 69.5111 77.6733 60.4472V60.4251Z" fill="#AC905C" fill-opacity="0.6"/>
<path d="M67.164 60.5947C47.5539 42.703 21.535 25.2759 0.01475 13.7119V14.4642C2.242 15.6663 4.52824 16.9274 6.85874 18.2623C28.7772 30.7703 50.5998 46.3757 66.7215 61.0815C80.7192 73.8476 97.3719 92.3145 97.2539 107.795C97.2171 112.426 97.1802 117.441 96.7746 122.987H97.3203C97.6596 118.451 97.8661 113.422 97.9103 107.802C98.0283 92.0785 81.2502 73.4493 67.1566 60.5947H67.164Z" fill="#AC905C" fill-opacity="0.6"/>
<path d="M56.131 60.4546C41.7498 47.9982 23.2533 35.1584 5.39849 25.2317C3.56212 24.2065 1.76262 23.2404 0.00737499 22.3185V23.0708C1.65937 23.941 3.34824 24.8482 5.07399 25.8143C22.892 35.7189 41.3442 48.5366 55.6959 60.9635C81.5378 83.3392 87.0986 97.831 87.2166 106.039C87.3125 112.507 87.1207 118.09 86.7372 122.987H87.401C87.7845 118.083 87.9688 112.492 87.873 106.025C87.755 97.6761 82.15 82.9925 56.1236 60.4546H56.131Z" fill="#AC905C" fill-opacity="0.6"/>
<path d="M44.3532 59.931C32.0001 49.9305 17.0805 40.0111 3.42199 32.7246C2.26412 32.1051 1.13575 31.5225 0.01475 30.9546V31.6921C1.02512 32.2084 2.05762 32.7394 3.10487 33.3073C16.7338 40.579 31.6166 50.4689 43.9328 60.4472C56.072 70.2781 76.5376 89.0474 77.1866 104.277C77.5037 111.733 77.3636 117.847 76.9137 122.987H77.5775C78.0273 117.832 78.1601 111.711 77.843 104.247C77.1866 88.7598 56.5735 69.8356 44.3458 59.931H44.3532Z" fill="#AC905C" fill-opacity="0.6"/>
<path d="M0.01475 121.837V122.589C0.258125 122.722 0.501499 122.854 0.752249 122.987H2.10925C1.40862 122.596 0.707999 122.213 0.01475 121.837Z" fill="#AC905C" fill-opacity="0.6"/>
<path d="M56.2859 81.0898C50.1278 74.0762 41.6097 66.4652 31.6608 59.0976C21.6603 51.6931 10.8634 44.9966 1.27587 40.2545C0.848123 40.0406 0.435124 39.8489 0.022125 39.6424V40.3725C9.35886 44.9008 20.5762 51.7152 31.2699 59.6286C41.1893 66.9741 49.6705 74.5408 55.7918 81.5249C62.8644 89.5858 66.6846 96.6437 67.164 102.522C67.872 111.246 67.7761 117.788 67.1714 122.987H67.8425C68.4399 117.758 68.5284 111.194 67.8277 102.47C67.341 96.4519 63.4618 89.2613 56.2933 81.0898H56.2859Z" fill="#AC905C" fill-opacity="0.6"/>
<path d="M44.4564 79.4083C37.6419 72.4758 28.5264 65.1598 18.7915 58.81C11.9032 54.3186 5.45011 50.7712 0.022125 48.4186V49.1635C5.38374 51.5161 11.741 55.0045 18.4375 59.3631C28.1356 65.6834 37.2142 72.9699 43.9918 79.8655C51.824 87.8379 56.367 95.0654 57.1414 100.766C58.5058 110.855 58.7418 117.788 57.8936 122.98H58.55C59.3908 117.766 59.1695 110.877 57.7904 100.678C57.0013 94.8368 52.3919 87.4765 44.4564 79.4009V79.4083Z" fill="#AC905C" fill-opacity="0.6"/>
<path d="M0.01475 117.515C3.28187 119.115 6.64486 120.944 9.96361 122.987H11.2174C7.48561 120.649 3.68749 118.562 0.01475 116.777V117.515Z" fill="#AC905C" fill-opacity="0.6"/>
<path d="M33.3128 78.8404C26.2328 72.3209 17.1837 65.8531 9.10073 61.5314C6.70386 60.2481 3.29662 58.5814 0.01475 57.4972V58.1978C2.55912 59.0533 5.51649 60.3661 8.79098 62.1213C16.8223 66.421 25.8198 72.8519 32.8629 79.3346C40.8796 86.7169 45.9388 93.7084 47.104 99.0405C49.936 111.998 50.1573 118.156 46.986 122.994H47.753C50.7768 118.038 50.5334 111.622 47.753 98.893C46.9123 95.0359 43.7189 88.4206 33.3128 78.8478V78.8404Z" fill="#AC905C" fill-opacity="0.6"/>
<path d="M0.01475 112.721C5.84836 115.14 12.567 118.606 18.6808 122.987H19.8018C13.3635 118.26 6.18024 114.55 0.01475 112.006V112.721Z" fill="#AC905C" fill-opacity="0.6"/>
<path d="M24.5587 80.7063C18.231 75.2119 11.2247 70.7206 5.81886 68.7072C3.49574 67.8369 1.55612 67.4608 0.01475 67.5493V68.2131C0.16225 68.2057 0.302374 68.1909 0.457249 68.1909C1.84375 68.1909 3.56949 68.567 5.58286 69.3193C10.9224 71.3105 17.8548 75.7577 24.1236 81.2004C30.7316 86.9382 35.4589 92.8086 37.0814 97.3C41.6539 109.904 41.3147 112.876 34.6329 118.488C32.1107 120.612 25.7461 120.502 19.47 116.645C12.2499 112.212 4.09312 109.122 0.914498 108.001C0.604749 107.89 0.302374 107.765 0.00737499 107.632V108.348C0.236 108.444 0.464624 108.547 0.693249 108.628C3.84974 109.742 11.9549 112.81 19.1233 117.212C22.0586 119.012 25.3257 120.17 28.3199 120.457C28.8362 120.509 29.3377 120.531 29.8171 120.531C32.0369 120.531 33.8659 120 35.0607 118.997C41.9637 113.193 42.3619 109.911 37.7009 97.0787C36.0342 92.4841 31.2404 86.5178 24.5513 80.7063H24.5587Z" fill="#AC905C" fill-opacity="0.6"/>
<path d="M22.4273 110.922C23.954 110.922 25.3921 110.708 26.6753 110.206C29.9941 108.908 31.7051 107.588 32.2213 105.921C33.0104 103.392 31.0929 100.368 27.6341 95.2424C25.2962 91.7762 21.7857 87.8527 18.2383 84.7404C15.3178 82.1813 11.0772 79.0248 7.46349 78.5454C5.89261 78.3389 4.60199 78.6634 3.61374 79.5189C2.41162 80.5588 1.15787 81.8715 0.01475 83.3539V84.4528C1.25375 82.7197 2.68449 81.1931 4.04887 80.0204C4.71999 79.4378 5.57549 79.1502 6.59324 79.1502C6.84399 79.1502 7.10949 79.1649 7.38236 79.2018C13.5036 80.0131 22.9215 89.4235 27.0957 95.6185C30.3407 100.434 32.2951 103.502 31.5944 105.737C31.1372 107.197 29.5516 108.385 26.4393 109.602C25.2151 110.081 23.836 110.287 22.3757 110.287C14.4107 110.287 3.98987 104.137 1.91012 102.654C1.20212 102.145 0.582624 101.614 0.01475 101.061V101.968C0.486749 102.389 0.980873 102.794 1.52662 103.193C3.63587 104.705 14.2411 110.936 22.4273 110.936V110.922Z" fill="#AC905C" fill-opacity="0.6"/>
<path d="M73.536 2.31019C77.8946 3.12144 82.209 3.46807 86.4053 3.46807C98.3749 3.46807 109.342 0.65082 117.255 -2.12955C131.12 -7.00442 141.445 -13.664 146.482 -18.2734C155.59 -26.5997 163.953 -49.8015 164.381 -59.9568C164.477 -62.3021 164.16 -63.8951 163.43 -64.6916C160.649 -67.7005 157.921 -66.4542 148.857 -62.3389C144.233 -60.2371 137.905 -57.3608 129.011 -53.8651C108.604 -45.8558 61.0354 -39.3585 30.6136 -39.3585C23.0026 -39.3585 16.461 -39.7641 11.6894 -40.6565C6.93986 -41.5415 3.07537 -42.0061 0.00737499 -42.0356V-41.3645C3.03849 -41.335 6.87349 -40.8851 11.5714 -40.0075C22.538 -37.9572 44.6998 -38.385 69.4134 -41.1285C94.6948 -43.9383 117.063 -48.4666 129.254 -53.2456C138.163 -56.7413 144.498 -59.6249 149.13 -61.7268C158.083 -65.7978 160.487 -66.8893 162.943 -64.2343C163.363 -63.7844 163.835 -62.6782 163.725 -59.9789C163.297 -49.9268 155.03 -26.9759 146.039 -18.7528C141.047 -14.1876 130.81 -7.58703 117.034 -2.74904C106.428 0.975328 90.2993 4.76607 73.654 1.6612C60.084 -0.875799 40.7394 -7.62391 21.9111 -16.3854C12.9357 -20.5596 5.35424 -24.6233 0.01475 -28.0379V-27.2635C6.06961 -23.4433 14.2411 -19.2248 21.6382 -15.788C40.5182 -6.99704 59.9144 -0.234175 73.536 2.31019Z" fill="#AC905C" fill-opacity="0.6"/>
<path d="M75.1069 0.857323C79.023 1.56532 82.9096 1.86769 86.6856 1.86769C97.8587 1.86769 108.11 -0.772545 115.485 -3.36854C128.281 -7.87466 137.912 -14.0475 142.647 -18.3176C147.205 -22.4403 152.139 -31.0911 155.826 -41.453C158.68 -49.4548 160.694 -58.5998 158.769 -61.0041C156.379 -63.9909 153.724 -62.8183 144.933 -58.9169C140.7 -57.0363 134.896 -54.4698 126.931 -51.3723C122.13 -49.5212 115.765 -47.7217 107.999 -46.0181C77.2751 -39.2773 34.0429 -35.6784 17.2943 -38.4809C8.17148 -40.0075 2.61812 -39.9264 0.01475 -38.208V-37.382C1.2095 -38.3923 3.39987 -38.9012 6.65961 -38.9012C9.41048 -38.9012 12.9062 -38.5399 17.1837 -37.8245C33.9913 -35.0146 77.3488 -38.6062 108.139 -45.3691C115.935 -47.0801 122.336 -48.8943 127.167 -50.7528C135.147 -53.8503 140.958 -56.4242 145.199 -58.3048C153.85 -62.1398 156.18 -63.1723 158.252 -60.5837C159.735 -58.7326 158.452 -50.7823 155.199 -41.6668C151.541 -31.4009 146.681 -22.8533 142.197 -18.8044C137.507 -14.5785 127.963 -8.46467 115.256 -3.98805C105.47 -0.543931 90.5722 2.98869 75.2175 0.208325C65.2834 -1.5543 52.0821 -5.69904 38.0549 -11.4663C19.47 -19.1215 3.87187 -27.6396 0.00737499 -32.0646V-31.1206C5.16249 -25.936 22.1397 -17.2999 37.7968 -10.8542C51.8683 -5.07216 65.1138 -0.912673 75.0921 0.857323H75.1069Z" fill="#AC905C" fill-opacity="0.6"/>
<path d="M17.7811 -22.4992C24.4628 -18.8265 33.1801 -14.7629 42.3398 -11.0533C55.1133 -5.89816 67.3041 -2.18855 76.6777 -0.595548C80.1218 -0.0129243 83.5291 0.237833 86.8552 0.237833C97.2834 0.237833 106.856 -2.23279 113.715 -4.65179C125.463 -8.78915 134.38 -14.4531 138.812 -18.3693C148.363 -26.8874 156.903 -53.1571 154.122 -57.3092C152.131 -60.2813 149.602 -59.1898 141.216 -55.5761C137.337 -53.9019 132.027 -51.6157 124.851 -48.887C120.411 -47.1981 114.475 -45.5387 107.21 -43.9531C93.9794 -41.0695 77.0612 -38.5472 60.7846 -37.0353C44.1762 -35.494 30.3702 -35.2285 22.892 -36.3052C13.4004 -37.6696 8.34848 -37.323 6.51949 -35.1769C5.70824 -34.2255 5.54599 -32.9275 6.04011 -31.3197C6.77024 -28.9597 12.8251 -25.2206 17.7811 -22.4992ZM7.02099 -34.7417C8.11986 -36.025 10.6937 -36.4527 13.7101 -36.4527C16.7265 -36.4527 19.9788 -36.0545 22.8035 -35.6489C30.3259 -34.5647 44.1983 -34.8302 60.851 -36.3716C77.1497 -37.8835 94.1048 -40.4057 107.358 -43.2967C114.652 -44.8897 120.618 -46.5565 125.087 -48.2601C132.278 -50.9888 137.595 -53.2824 141.474 -54.9566C150.066 -58.6588 151.947 -59.3594 153.569 -56.9331C154.779 -55.1262 153.459 -47.8545 150.442 -39.6387C147.02 -30.3094 142.507 -22.5361 138.369 -18.856C133.989 -14.9768 125.154 -9.36441 113.494 -5.26391C104.526 -2.10742 90.8746 1.15232 76.7884 -1.24455C67.459 -2.83017 55.3124 -6.53241 42.5832 -11.6654C23.4893 -19.4018 7.71423 -28.1264 6.67436 -31.5115C6.24661 -32.9054 6.35724 -33.9674 7.02099 -34.7417Z" fill="#AC905C" fill-opacity="0.6"/>
<path d="M46.8607 -11.245C58.4025 -6.69466 69.5535 -3.42016 78.2486 -2.03366C81.2355 -1.56166 84.1928 -1.35516 87.0838 -1.35516C96.7451 -1.35516 105.625 -3.65617 111.952 -5.88341C122.668 -9.65203 130.869 -14.8219 134.97 -18.4061C136.828 -20.0286 141.651 -25.1174 146.305 -37.382C148.665 -43.6065 150.664 -51.3354 149.461 -53.5996C147.876 -56.6012 145.442 -55.5834 137.389 -52.2131C133.885 -50.7454 129.099 -48.7394 122.764 -46.3868C118.641 -44.8528 113.14 -43.3336 106.421 -41.8733C80.4685 -36.2536 42.5979 -32.485 28.4896 -34.1222C19.7502 -35.1326 15.3695 -34.7417 13.8355 -32.8021C13.1422 -31.9319 13.0611 -30.7592 13.5847 -29.3064C14.927 -25.5967 31.3437 -17.4105 46.868 -11.2376L46.8607 -11.245ZM14.3517 -32.3965C15.3178 -33.6134 17.8106 -34.0116 20.7975 -34.0116C23.1943 -34.0116 25.9009 -33.7609 28.4084 -33.4659C42.5758 -31.8212 80.557 -35.5972 106.561 -41.2317C113.309 -42.692 118.841 -44.2186 123 -45.7673C129.35 -48.1273 134.144 -50.1407 137.654 -51.6083C145.671 -54.9639 147.581 -55.7604 148.886 -53.2972C150.73 -49.8088 143.281 -26.5334 134.542 -18.9076C130.486 -15.3676 122.366 -10.2568 111.738 -6.51029C103.589 -3.64142 91.1769 -0.654538 78.3592 -2.69003C69.7084 -4.06916 58.6164 -7.32153 47.1114 -11.8571C29.4631 -18.8781 15.3178 -26.4744 14.2116 -29.535C13.7691 -30.7666 13.8133 -31.7032 14.3591 -32.3891L14.3517 -32.3965Z" fill="#AC905C" fill-opacity="0.6"/>
<path d="M51.3889 -11.4442C61.7065 -7.48379 71.8029 -4.65916 79.8195 -3.48653C82.3417 -3.11778 84.8418 -2.95554 87.283 -2.95554C96.1846 -2.95554 104.378 -5.08691 110.182 -7.13715C119.851 -10.5444 127.344 -15.2128 131.135 -18.4504C136.201 -22.7795 140.103 -31.7254 141.541 -35.3686C144.137 -41.9323 145.508 -48.0388 144.808 -49.8899C144.469 -50.7749 144.026 -51.3133 143.414 -51.5862C141.873 -52.2573 139.284 -51.2101 133.613 -48.9091C130.486 -47.6406 126.208 -45.9075 120.684 -43.9015C116.871 -42.515 111.812 -41.1432 105.632 -39.8157C81.8476 -34.7048 47.0745 -30.8846 34.0798 -31.954C27.3686 -32.5071 22.6043 -32.4629 21.1588 -30.4569C20.591 -29.6604 20.5762 -28.6057 21.1293 -27.3225C22.5822 -23.93 37.8337 -16.7173 51.3889 -11.4589V-11.4442ZM21.6898 -30.0586C22.5306 -31.2239 25.0381 -31.5852 28.1061 -31.5852C29.9572 -31.5852 32.0074 -31.4525 34.0208 -31.2902C47.0672 -30.2135 81.9287 -34.0411 105.765 -39.1594C111.974 -40.4942 117.063 -41.8807 120.906 -43.2746C126.444 -45.288 130.729 -47.0285 133.856 -48.297C139.188 -50.4578 141.858 -51.542 143.141 -50.9815C143.584 -50.7897 143.908 -50.3841 144.181 -49.6613C144.823 -47.9798 143.421 -41.9397 140.921 -35.612C137.912 -28.0084 134.188 -21.9388 130.7 -18.9519C121.466 -11.068 99.6066 -1.2593 79.908 -4.14292C71.943 -5.30816 61.8983 -8.11804 51.6249 -12.0637C35.4663 -18.3324 22.892 -24.8592 21.7341 -27.5732C21.2768 -28.65 21.2621 -29.4612 21.6898 -30.066L21.6898 -30.0586Z" fill="#AC905C" fill-opacity="0.6"/>
<path d="M55.9171 -11.6433C64.7745 -8.33928 74.0596 -5.89079 81.3903 -4.93941C83.4406 -4.67391 85.4687 -4.55591 87.4673 -4.55591C95.6167 -4.55591 103.132 -6.52504 108.42 -8.39091C115.736 -10.9722 122.794 -14.7481 127.3 -18.4946C134.704 -24.6528 141.408 -42.8026 140.154 -46.173C140.125 -46.763 140.007 -47.5668 139.372 -47.9798C138.133 -48.7911 135.655 -47.8323 129.667 -45.524C126.776 -44.4103 123.17 -43.0165 118.605 -41.4013C115.109 -40.1697 110.477 -38.9307 104.843 -37.736C83.6913 -33.2372 51.411 -29.2916 39.6701 -29.771C31.4617 -30.1029 29.3082 -29.3727 28.4896 -28.0895C28.0323 -27.3741 28.0913 -26.4301 28.6739 -25.3017C30.2006 -22.3296 43.8664 -16.142 55.9171 -11.6433ZM29.0427 -27.7355C29.7949 -28.9155 32.6122 -29.2031 35.8572 -29.2031C37.0888 -29.2031 38.3794 -29.1589 39.6405 -29.1072C51.4184 -28.6279 83.7872 -32.5809 104.976 -37.087C110.632 -38.2891 115.293 -39.5355 118.818 -40.7745C123.398 -42.3896 127.005 -43.7835 129.903 -44.8971C135.161 -46.9252 138.052 -48.0462 139.004 -47.4193C139.195 -47.294 139.454 -47.0211 139.49 -46.0771V-46.0181L139.52 -45.9665C140.752 -43.0533 134.07 -24.9846 126.872 -18.9961C122.425 -15.2939 115.441 -11.5621 108.191 -9.00303C101.679 -6.70203 91.7522 -4.24616 81.4715 -5.58104C74.1924 -6.53241 64.9589 -8.95878 56.1458 -12.248C41.7867 -17.6023 30.4808 -23.2146 29.2639 -25.5894C28.7919 -26.5112 28.7182 -27.2045 29.0501 -27.7207L29.0427 -27.7355Z" fill="#AC905C" fill-opacity="0.6"/>
<path d="M60.4454 -11.835C68.1006 -9.10629 76.309 -7.11504 82.9612 -6.38492C84.5026 -6.2153 86.044 -6.13416 87.5927 -6.13416C102.409 -6.13416 117.107 -13.4206 123.45 -18.5389C129.977 -23.7973 136.223 -39.1446 135.486 -42.4412C135.574 -43.0607 135.604 -43.9015 135.051 -44.3587C134.003 -45.2142 131.548 -44.3145 125.611 -42.1462C123.184 -41.2612 120.161 -40.155 116.51 -38.916C113.324 -37.8319 109.128 -36.7404 104.046 -35.671C84.7017 -31.6074 55.4746 -28.2517 45.2308 -27.5954C44.8252 -27.5659 44.4343 -27.5437 44.0434 -27.5216C39.5078 -27.2414 36.5136 -27.057 35.7834 -25.6336C35.4663 -25.0215 35.6064 -24.2545 36.2112 -23.2958C37.8927 -20.626 50.3048 -15.4561 60.4306 -11.8498L60.4454 -11.835ZM36.3808 -25.3239C36.9413 -26.4154 40.0978 -26.6071 44.0877 -26.8579C44.4712 -26.88 44.8694 -26.9095 45.275 -26.9316C55.5336 -27.588 84.805 -30.951 104.179 -35.022C109.29 -36.0987 113.508 -37.1976 116.724 -38.2891C120.382 -39.5355 123.406 -40.6417 125.839 -41.5267C130.847 -43.3557 133.878 -44.462 134.63 -43.8498C134.866 -43.6581 134.925 -43.2082 134.815 -42.4781V-42.4117L134.822 -42.3453C135.523 -39.7346 129.63 -24.3799 123.03 -19.0551C116.104 -13.4723 99.1198 -5.2713 83.0276 -7.04129C76.4196 -7.77142 68.2702 -9.74053 60.6593 -12.4619C47.6645 -17.1008 38.0697 -21.5921 36.7791 -23.6424C36.3071 -24.3873 36.1817 -24.9404 36.3808 -25.3239Z" fill="#AC905C" fill-opacity="0.6"/>
<path d="M64.9736 -12.0341C71.4415 -9.8659 78.5731 -8.33192 84.5395 -7.83779C85.6015 -7.74929 86.6708 -7.70504 87.7402 -7.70504C100.75 -7.70504 113.693 -13.9959 119.615 -18.5831C125.537 -23.1704 130.965 -35.789 130.817 -38.7095C131.053 -39.4175 131.245 -40.2656 130.758 -40.7597C129.873 -41.6447 127.41 -40.804 121.459 -38.7758C119.445 -38.09 117.159 -37.3082 114.445 -36.4232C111.561 -35.4866 107.8 -34.5352 103.272 -33.5986C86.7225 -30.1766 60.1725 -26.172 50.8431 -25.4124C46.5878 -25.0658 43.7558 -24.7412 43.1732 -23.4064C42.915 -22.8164 43.1215 -22.1231 43.7853 -21.275C45.9093 -18.5831 60.5413 -13.5239 64.9736 -12.0415V-12.0341ZM43.7779 -23.1409C44.213 -24.1365 47.2589 -24.461 50.8948 -24.756C60.2389 -25.5156 86.8331 -29.5276 103.405 -32.957C107.955 -33.901 111.738 -34.8597 114.652 -35.7964C117.373 -36.6814 119.659 -37.4631 121.673 -38.149C126.503 -39.801 129.696 -40.8925 130.294 -40.2951C130.419 -40.1697 130.5 -39.8157 130.176 -38.8644L130.154 -38.798V-38.7242C130.39 -36.1135 124.918 -23.517 119.217 -19.1068C112.889 -14.2024 98.4487 -7.33629 84.5985 -8.49416C78.6837 -8.98829 71.6111 -10.5075 65.1875 -12.661C53.6456 -16.5329 45.6438 -19.9918 44.3089 -21.6806C43.8148 -22.3075 43.6378 -22.8016 43.7853 -23.1409H43.7779Z" fill="#AC905C" fill-opacity="0.6"/>
<path d="M69.5092 -12.2259C74.8856 -10.5813 80.7856 -9.53403 86.1177 -9.28328C86.6487 -9.26115 87.1871 -9.2464 87.7255 -9.2464C98.2201 -9.2464 109.474 -13.9959 115.773 -18.6274C121.046 -22.5066 125.744 -32.5145 126.127 -34.9777C126.555 -35.7742 126.924 -36.6445 126.474 -37.1828C125.714 -38.1047 123.207 -37.3156 117.137 -35.4129C115.728 -34.9704 114.128 -34.4689 112.358 -33.9305C109.762 -33.1414 106.436 -32.3301 102.475 -31.5262C90.7934 -29.1589 73.418 -26.1646 63.0414 -24.3799C60.32 -23.9079 58.0411 -23.517 56.4113 -23.2294C52.9598 -22.6246 50.8432 -22.1748 50.5113 -21.0833C50.2974 -20.3753 50.8874 -19.6968 51.352 -19.2469C52.8344 -17.8161 58.9409 -15.4561 69.5092 -12.2259ZM51.1455 -20.8915C51.3815 -21.6733 54.2356 -22.1748 56.5293 -22.5804C58.1591 -22.868 60.438 -23.2589 63.1594 -23.7309C73.5434 -25.523 90.9188 -28.5172 102.616 -30.8846C106.598 -31.6959 109.946 -32.5071 112.557 -33.3036C114.327 -33.842 115.927 -34.3435 117.343 -34.786C121.901 -36.2167 125.493 -37.3451 125.972 -36.7699C126.039 -36.6887 126.134 -36.3642 125.522 -35.2432L125.493 -35.1916V-35.1326C125.19 -32.8464 120.574 -22.9786 115.389 -19.1658C109.179 -14.6006 98.0799 -9.91754 87.7402 -9.91754C87.2092 -9.91754 86.6856 -9.93229 86.1546 -9.95441C80.8741 -10.2052 75.0331 -11.245 69.7084 -12.8749C56.6768 -16.8574 52.7901 -18.8044 51.8166 -19.741C51.4553 -20.0877 51.0497 -20.5744 51.1455 -20.9063V-20.8915Z" fill="#AC905C" fill-opacity="0.6"/>
<path d="M58.9335 -17.2261C60.7994 -15.9429 67.1492 -14.2245 74.0449 -12.425C78.2265 -11.3335 83.0128 -10.7362 87.5411 -10.7362C87.5927 -10.7362 87.6517 -10.7362 87.7033 -10.7362C96.4869 -10.7657 106.2 -14.7408 111.93 -18.6716C116.104 -21.5331 119.563 -27.8535 121.038 -30.5527C121.193 -30.833 121.319 -31.069 121.429 -31.2534C122.196 -32.6177 122.358 -33.3626 121.982 -33.8346C121.319 -34.668 119.268 -34.0632 114.77 -32.7431C113.457 -32.3522 111.967 -31.9171 110.286 -31.4451C107.94 -30.7887 105.049 -30.125 101.694 -29.4612C99.8057 -29.0925 97.7407 -28.6869 95.5724 -28.2665C83.1382 -25.8401 67.6581 -22.8237 61.9794 -21.0464C59.2064 -20.1761 57.9453 -19.6451 57.8199 -18.8044C57.724 -18.1554 58.3656 -17.6244 58.9409 -17.2335L58.9335 -17.2261ZM58.4689 -18.7011C58.5574 -19.2764 60.8215 -19.9844 62.1711 -20.4048C67.813 -22.1748 83.271 -25.1911 95.6904 -27.6101C97.8587 -28.0305 99.9237 -28.4361 101.812 -28.8049C105.182 -29.4686 108.095 -30.1397 110.455 -30.7961C112.144 -31.2681 113.634 -31.7032 114.947 -32.0941C117.565 -32.8685 119.895 -33.5544 120.928 -33.5544C121.193 -33.5544 121.37 -33.5101 121.451 -33.4142C121.525 -33.3184 121.621 -32.9496 120.839 -31.5705C120.736 -31.3787 120.603 -31.1427 120.448 -30.8625C118.995 -28.2075 115.588 -21.983 111.547 -19.21C105.897 -15.3382 96.3321 -11.422 87.6886 -11.3925C83.1677 -11.3851 78.3813 -11.9678 74.1997 -13.0593C72.1716 -13.5903 70.1435 -14.1213 68.2555 -14.6449C67.9974 -14.7113 67.754 -14.7776 67.5254 -14.8514C63.6388 -15.9429 60.4528 -16.9754 59.2949 -17.7719C58.5205 -18.3029 58.4394 -18.5831 58.4541 -18.7011H58.4689Z" fill="#AC905C" fill-opacity="0.6"/>
<path d="M71.9577 -14.3352C71.9356 -14.3942 71.9209 -14.4605 71.9061 -14.5269C69.6789 -14.962 67.8056 -15.3898 66.7805 -15.8175C65.8218 -16.2232 65.6669 -16.4813 65.6595 -16.5993C65.6521 -16.8205 66.0135 -17.2851 67.8204 -18.2513C73.7794 -21.4299 94.7317 -25.5525 101.008 -26.7325C103.604 -27.2266 106.141 -27.765 108.346 -28.3034C108.973 -28.4583 109.578 -28.6057 110.153 -28.7459C113.523 -29.5719 117.004 -30.4274 117.336 -29.8964C117.373 -29.8374 117.484 -29.4686 116.193 -27.9494C115.92 -27.6249 115.596 -27.2192 115.212 -26.7399C113.56 -24.6601 110.802 -21.1791 107.712 -19.269C103.316 -16.5403 96.1477 -13.4207 89.2226 -12.8454C86.6266 -12.6315 84.0822 -12.6389 81.7148 -12.8602C81.0437 -12.8749 80.3726 -12.8897 79.7088 -12.897C78.5731 -12.9118 77.548 -12.9339 76.6409 -12.9781C77.2899 -12.8601 77.9315 -12.7421 78.5805 -12.6241C80.6897 -12.2259 83.0128 -12.0268 85.4392 -12.0268C86.7003 -12.0268 87.991 -12.0784 89.289 -12.189C96.3321 -12.779 103.611 -15.9429 108.073 -18.7085C111.259 -20.685 114.069 -24.2176 115.743 -26.3343C116.119 -26.8063 116.444 -27.2119 116.709 -27.529C117.897 -28.9303 118.243 -29.7194 117.904 -30.2577C117.343 -31.1649 115.212 -30.6781 110.005 -29.4022C109.43 -29.2621 108.825 -29.1146 108.198 -28.9598C106.001 -28.4288 103.471 -27.883 100.89 -27.3963C94.5842 -26.2089 73.5507 -22.0715 67.5106 -18.8486C65.6521 -17.853 64.9663 -17.2409 64.9958 -16.5845C65.0253 -15.9355 65.7849 -15.5299 66.515 -15.2202C66.7952 -15.1022 67.1345 -14.9842 67.5254 -14.8662C67.754 -14.7998 67.9974 -14.7334 68.2555 -14.6597C69.406 -14.3573 70.8589 -14.0549 72.4592 -13.7525C72.2159 -13.9148 72.0462 -14.1065 71.9504 -14.3425L71.9577 -14.3352Z" fill="#AC905C" fill-opacity="0.6"/>
<path d="M75.7706 -13.8042C74.7307 -13.9959 73.713 -14.1803 72.7395 -14.3646C73.2705 -13.8926 74.8635 -13.7083 76.7367 -13.6271C76.4122 -13.6861 76.0877 -13.7452 75.7706 -13.8042Z" fill="#AC905C" fill-opacity="0.6"/>
<path d="M81.7296 -12.8528C82.209 -12.838 82.6883 -12.8307 83.1603 -12.8085C83.4775 -12.7938 83.7872 -12.7864 84.1117 -12.7864C93.7877 -12.7864 106.384 -19.0699 112.004 -23.8046C113.626 -25.1764 114.194 -26.0245 113.892 -26.6588C113.346 -27.8019 110.19 -27.2487 104.186 -26.0835C102.852 -25.8254 101.48 -25.5599 100.115 -25.3165C95.0931 -24.4315 89.4217 -23.1188 84.9377 -21.8134C78.8165 -20.0286 74.8192 -18.2734 73.0492 -16.6067C72.1642 -15.7659 71.7955 -15.1021 71.9061 -14.5269C71.9209 -14.4605 71.9282 -14.4015 71.9577 -14.3352C72.0462 -14.0992 72.2232 -13.9074 72.4666 -13.7452C73.2115 -13.2584 74.6349 -13.0667 76.6482 -12.9708C77.5554 -12.9339 78.5805 -12.9118 79.7162 -12.8897C80.38 -12.8823 81.0511 -12.8675 81.7222 -12.8528H81.7296ZM72.5772 -14.5712C72.4519 -14.8883 72.7837 -15.4414 73.5065 -16.1199C77.4373 -19.8295 92.7036 -23.3326 100.226 -24.6601C101.59 -24.9035 102.97 -25.169 104.304 -25.4271C107.948 -26.1351 112.933 -27.1013 113.287 -26.3638C113.309 -26.3195 113.442 -25.8844 111.569 -24.3061C105.853 -19.4829 92.8068 -13.0372 83.1825 -13.4575C82.0467 -13.5092 80.8667 -13.5239 79.7236 -13.546C78.728 -13.5608 77.6955 -13.5755 76.7293 -13.6198C74.8635 -13.7009 73.2631 -13.8853 72.7321 -14.3573C72.6584 -14.4237 72.5994 -14.49 72.5699 -14.5712H72.5772Z" fill="#AC905C" fill-opacity="0.6"/>
<path d="M150.059 103.207C148.938 102.706 147.913 102.728 147.006 103.266C145.39 104.225 143.377 112.161 142.315 116.799C141.858 118.813 141.423 120.893 141.017 122.987H141.696C143.561 113.37 145.973 104.646 147.337 103.842C147.706 103.62 148.09 103.517 148.51 103.517C148.93 103.517 149.336 103.62 149.786 103.82C153.444 105.449 158.134 113.341 161.719 122.994H162.382C158.857 113.459 154.115 105.029 150.051 103.222L150.059 103.207Z" fill="#AC905C" fill-opacity="0.6"/>
<path d="M235.137 -82.7381C234.355 -82.5095 233.47 -82.2588 232.533 -81.9933C224.229 -79.6259 216.677 -77.3544 215.438 -75.6213C215.305 -75.4369 215.195 -75.1198 215.416 -74.6773C216.758 -71.9928 231.715 -65.8789 240.764 -65.6872C242.268 -65.6577 243.714 -65.6355 245.086 -65.6355C245.853 -65.6355 246.597 -65.6429 247.313 -65.6577V-66.314C245.137 -66.2624 242.873 -66.314 240.779 -66.3509C236.892 -66.432 231.191 -67.7374 225.534 -69.8393C220.505 -71.7052 216.589 -73.8218 216.006 -74.9797C215.917 -75.1567 215.962 -75.2157 215.976 -75.2452C217.179 -76.9266 226.906 -79.707 232.71 -81.3664C233.654 -81.6319 234.532 -81.89 235.321 -82.1186C239.112 -83.2249 243.33 -83.011 247.305 -81.595V-82.2956C243.264 -83.6895 238.986 -83.8739 235.137 -82.7529V-82.7381Z" fill="#AC905C" fill-opacity="0.6"/>
<path d="M0.01475 -47.4267C1.46762 -47.589 1.96912 -47.766 2.02075 -48.1937C2.07237 -48.6362 1.57825 -48.9533 0.01475 -49.4843V-48.7837C0.685874 -48.5477 1.0325 -48.3928 1.20212 -48.2896C0.958748 -48.2158 0.530999 -48.1568 0.01475 -48.0978V-47.4267Z" fill="#AC905C" fill-opacity="0.6"/>
</g>
</g>
<defs>
<clipPath id="clip0_0_5">
<rect width="247" height="20" fill="white"/>
</clipPath>
</defs>
</svg>
